<svg version="1.1" id="Layer_1" xmlns="http://www.w3.org/2000/svg" xmlns:xlink="http://www.w3.org/1999/xlink" x="0px" y="0px"
	 width="100%" viewBox="0 0 1024 1024" enable-background="new 0 0 1024 1024" xml:space="preserve">
<path fill="#161616" opacity="1.000000" stroke="none" 
	d="
M577.000000,1025.000000 
	C384.666656,1025.000000 192.833328,1025.000000 1.000000,1025.000000 
	C1.000000,683.666687 1.000000,342.333344 1.000000,1.000000 
	C342.333344,1.000000 683.666687,1.000000 1025.000000,1.000000 
	C1025.000000,342.333344 1025.000000,683.666687 1025.000000,1025.000000 
	C875.833313,1025.000000 726.666687,1025.000000 577.000000,1025.000000 
M715.450562,757.965210 
	C715.106995,758.525146 714.763489,759.085083 714.327271,759.796021 
	C715.138245,759.313477 715.774292,758.934998 716.917969,758.287903 
	C717.309509,757.892883 717.701050,757.497864 718.756226,756.934937 
	C724.178772,752.294983 729.601379,747.654968 735.629578,742.731201 
	C763.527283,717.410645 786.381653,688.181824 803.317993,654.492554 
	C833.542236,594.371521 843.794739,531.021484 833.171631,464.482056 
	C823.359497,403.022308 796.856995,349.014404 757.560120,301.416779 
	C718.834229,254.510681 669.415955,222.905258 611.323059,204.993225 
	C566.154053,191.066055 520.133484,188.495377 473.510559,195.579102 
	C465.663544,196.771362 457.903198,198.533905 450.102814,200.032944 
	C467.867371,198.697159 485.451019,195.794876 503.097076,195.345917 
	C520.839172,194.894485 538.739807,196.024963 556.398010,198.005005 
	C583.389648,201.031616 604.028442,206.690216 607.598633,210.829910 
	C606.321838,210.547943 605.591614,210.411316 604.874329,210.224747 
	C566.221802,200.170456 526.964233,198.678268 487.366333,201.861847 
	C450.960663,204.788757 416.493744,214.768875 383.655487,230.516724 
	C347.511871,247.849716 315.890503,271.314423 288.944977,301.038483 
	C288.159851,301.904572 286.994873,302.426270 286.006989,303.108551 
	C285.647034,302.686829 285.287079,302.265076 284.927124,301.843353 
	C289.639709,296.599396 294.352295,291.355438 299.688843,285.856445 
	C304.472198,281.029236 309.255524,276.202057 314.038879,271.374847 
	C313.747559,271.062744 313.456238,270.750641 313.164917,270.438538 
	C308.105316,275.289642 303.045746,280.140747 297.396973,285.302612 
	C263.519745,318.922943 238.946945,358.403564 223.404449,403.470337 
	C205.427567,455.595825 201.974014,508.830139 212.046371,562.965759 
	C218.610489,598.245789 231.714539,631.172058 249.131210,662.371582 
	C295.288147,745.055420 364.349426,797.657898 456.727203,819.146545 
	C488.308685,826.492859 520.395874,827.683777 552.586670,824.756104 
	C565.148682,823.613647 577.583923,821.077759 590.076904,819.176453 
	C590.043335,818.567688 590.009766,817.958862 589.976196,817.350098 
	C543.376526,826.082336 497.230713,824.855225 451.566040,812.308350 
	C452.134277,811.582581 452.757477,811.246094 453.277374,811.364197 
	C473.025726,815.852295 493.099060,817.096924 513.267700,817.672119 
	C543.399414,818.531372 573.224915,815.969849 602.386475,808.401184 
	C659.214111,793.651978 708.419739,765.496948 749.214539,723.018250 
	C749.983276,722.217773 751.031860,721.685913 751.949890,721.028748 
	C752.354187,721.475708 752.758484,721.922607 753.162720,722.369568 
	C746.781921,728.925171 740.401062,735.480835 733.392151,742.270752 
	C728.088135,746.976196 722.784058,751.681702 717.010071,756.698425 
	C716.651855,757.107788 716.293640,757.517212 715.450562,757.965210 
M413.387939,212.263687 
	C421.469757,209.661591 429.551605,207.059509 437.633423,204.457413 
	C437.508514,204.065369 437.383606,203.673309 437.258698,203.281265 
	C428.094025,206.199707 418.929352,209.118149 409.764679,212.036591 
	C409.868439,212.410751 409.972198,212.784912 410.075958,213.159073 
	C410.986664,212.971634 411.897400,212.784210 413.387939,212.263687 
M315.302948,269.543976 
	C315.122101,269.499573 314.941254,269.455139 314.760406,269.410736 
	C314.892181,269.381958 315.023987,269.353149 315.302948,269.543976 
M440.523315,203.086227 
	C440.523315,203.086227 440.420837,203.014084 440.420837,203.014084 
	C440.420837,203.014084 440.521332,202.932190 440.523315,203.086227 
z"/>
<path fill="#F7F7F7" opacity="1.000000" stroke="none" 
	d="
M299.064880,286.111481 
	C294.352295,291.355438 289.639709,296.599396 284.927124,301.843353 
	C285.287079,302.265076 285.647034,302.686829 286.006989,303.108551 
	C286.994873,302.426270 288.159851,301.904572 288.944977,301.038483 
	C315.890503,271.314423 347.511871,247.849716 383.655487,230.516724 
	C416.493744,214.768875 450.960663,204.788757 487.366333,201.861847 
	C526.964233,198.678268 566.221802,200.170456 604.874329,210.224747 
	C605.591614,210.411316 606.321838,210.547943 607.598633,210.829910 
	C604.028442,206.690216 583.389648,201.031616 556.398010,198.005005 
	C538.739807,196.024963 520.839172,194.894485 503.097076,195.345917 
	C485.451019,195.794876 467.867371,198.697159 450.102814,200.032944 
	C457.903198,198.533905 465.663544,196.771362 473.510559,195.579102 
	C520.133484,188.495377 566.154053,191.066055 611.323059,204.993225 
	C669.415955,222.905258 718.834229,254.510681 757.560120,301.416779 
	C796.856995,349.014404 823.359497,403.022308 833.171631,464.482056 
	C843.794739,531.021484 833.542236,594.371521 803.317993,654.492554 
	C786.381653,688.181824 763.527283,717.410645 735.121643,742.750854 
	C734.343201,742.584656 734.145386,742.339966 734.020264,742.036499 
	C740.401062,735.480835 746.781921,728.925171 753.162720,722.369568 
	C752.758484,721.922607 752.354187,721.475708 751.949890,721.028748 
	C751.031860,721.685913 749.983276,722.217773 749.214539,723.018250 
	C708.419739,765.496948 659.214111,793.651978 602.386475,808.401184 
	C573.224915,815.969849 543.399414,818.531372 513.267700,817.672119 
	C493.099060,817.096924 473.025726,815.852295 453.277374,811.364197 
	C452.757477,811.246094 452.134277,811.582581 451.566040,812.308350 
	C497.230713,824.855225 543.376526,826.082336 589.976196,817.350098 
	C590.009766,817.958862 590.043335,818.567688 590.076904,819.176453 
	C577.583923,821.077759 565.148682,823.613647 552.586670,824.756104 
	C520.395874,827.683777 488.308685,826.492859 456.727203,819.146545 
	C364.349426,797.657898 295.288147,745.055420 249.131210,662.371582 
	C231.714539,631.172058 218.610489,598.245789 212.046371,562.965759 
	C201.974014,508.830139 205.427567,455.595825 223.404449,403.470337 
	C238.946945,358.403564 263.519745,318.922943 297.921021,285.280731 
	C298.651672,285.543060 298.858276,285.827271 299.064880,286.111481 
M745.110168,303.261047 
	C744.832397,303.080444 744.554626,302.899841 744.036804,302.140839 
	C743.704285,301.896545 743.371765,301.652222 742.944824,300.793427 
	C740.792603,298.688965 738.640442,296.584473 736.233643,294.076141 
	C736.019897,293.825439 735.754456,293.655396 735.200378,293.133850 
	C734.986938,292.866302 734.714355,292.690399 734.013489,292.063263 
	C733.666992,292.144470 733.320496,292.225677 732.973999,292.306946 
	C733.247070,292.605286 733.520142,292.903625 733.940979,293.689026 
	C734.217102,293.870392 734.493164,294.051788 734.917053,294.717102 
	C735.187805,294.903290 735.458496,295.089508 736.007629,295.880066 
	C738.319702,298.286438 740.631775,300.692780 743.125916,303.476135 
	C743.125916,303.476135 743.484558,303.692047 743.660339,304.010773 
	C743.809570,304.208435 743.995056,304.362335 744.759277,305.146149 
	C745.177795,305.167542 745.596252,305.188934 746.014771,305.210297 
	C745.758728,304.725616 745.502686,304.240906 745.110168,303.261047 
M319.664825,735.412476 
	C320.011993,735.541809 320.359192,735.671204 320.706329,735.800537 
	C320.464874,735.538635 320.223419,735.276733 319.911316,734.482178 
	C319.610474,734.318848 319.309601,734.155579 318.853912,733.429016 
	C318.413055,733.046570 317.972198,732.664185 317.294952,731.978088 
	C317.120148,731.787354 316.922394,731.624390 316.427338,731.091675 
	C316.194214,730.868958 315.944946,730.665955 315.396973,730.082214 
	C315.161926,729.853027 314.902954,729.655151 314.219055,728.950806 
	C311.168060,725.928711 308.117035,722.906677 304.753876,719.257874 
	C302.953827,717.443420 301.153809,715.628967 299.353760,713.814514 
	C298.894196,714.286255 298.434662,714.757996 297.975098,715.229736 
	C299.956512,717.169128 301.937897,719.108521 304.148285,721.681641 
	C307.344330,724.540466 310.540375,727.399353 313.920288,730.731628 
	C314.209564,730.890869 314.498810,731.050049 314.967041,731.689575 
	C315.259918,731.846375 315.552765,732.003174 316.022491,732.641602 
	C316.320465,732.787842 316.618469,732.934082 317.106415,733.589355 
	C317.540894,733.913025 317.975403,734.236694 318.945740,735.055115 
	C319.333710,735.015381 319.721680,734.975647 319.664825,735.412476 
M261.743652,358.819031 
	C261.847595,358.271942 261.951569,357.724823 262.336823,355.697479 
	C261.144409,357.488007 260.802460,358.001465 259.993134,359.087769 
	C260.121613,359.500519 260.250092,359.913239 260.378571,360.325989 
	C260.653442,359.951508 260.928284,359.577026 261.743652,358.819031 
M249.143463,380.014099 
	C248.977158,380.570068 248.810837,381.126007 248.172745,382.121613 
	C247.866348,382.916931 247.559967,383.712250 246.971771,384.930908 
	C246.780518,385.399658 246.589264,385.868408 246.061966,386.817749 
	C245.859421,387.366425 245.656860,387.915131 245.108856,388.920319 
	C244.858536,389.629761 244.608215,390.339203 243.980789,391.702972 
	C216.951279,455.807770 211.913834,521.640869 228.463989,589.169922 
	C239.696289,635.000671 261.179535,675.339844 293.241516,710.000183 
	C294.317963,711.163879 295.642365,712.098083 296.851196,713.139282 
	C297.234344,712.765747 297.617462,712.392212 298.000610,712.018738 
	C283.482605,694.700928 270.530518,676.337219 259.963593,656.387329 
	C249.425430,636.491760 240.990005,615.797668 235.922394,593.836487 
	C237.041061,595.090149 237.548477,596.572571 238.042603,598.059387 
	C265.319092,680.131531 317.579803,740.740051 394.727783,779.705811 
	C428.501312,796.764038 464.524811,806.568848 502.192078,809.598267 
	C532.148499,812.007629 561.725525,808.551697 590.777649,800.901917 
	C663.329163,781.798401 721.257019,741.466309 764.594116,680.336975 
	C787.443848,648.106079 802.905518,612.433411 812.808899,574.059814 
	C813.048828,574.057800 813.288696,574.055847 813.391541,574.899841 
	C808.076477,592.441589 802.761414,609.983337 797.087891,628.071045 
	C796.806641,628.886475 796.525391,629.701965 795.996277,630.884094 
	C795.881531,631.160706 795.824463,631.448730 795.256348,632.187500 
	C793.999023,635.113403 792.741760,638.039368 791.484436,640.965271 
	C791.949158,641.179443 792.413818,641.393555 792.878540,641.607727 
	C794.182800,638.716370 795.487000,635.825073 797.053772,632.426147 
	C797.158508,632.061707 797.263245,631.697327 797.810120,630.958130 
	C798.083862,630.243958 798.357605,629.529785 799.008606,628.178650 
	C826.589661,563.925110 832.121765,497.751862 815.782776,429.838837 
	C805.611145,387.560181 786.129822,349.942200 757.556641,317.099243 
	C756.546936,315.938660 755.260681,315.018707 754.103333,313.986603 
	C753.705811,314.357574 753.308289,314.728516 752.910767,315.099457 
	C767.424255,332.767426 779.356750,352.018677 789.319946,372.511719 
	C800.276306,395.047485 812.136597,431.074738 810.374390,436.377075 
	C785.730896,348.768890 733.768250,282.807831 652.544189,240.534637 
	C610.946045,218.884796 566.525574,207.470215 519.611633,208.326096 
	C500.936249,208.666794 482.020844,211.305038 463.744965,215.314316 
	C397.864410,229.766907 342.161774,262.220215 297.861115,313.319275 
	C267.095642,348.806030 246.041580,389.614105 233.232452,434.925568 
	C232.872971,434.939819 232.513504,434.954102 232.190704,434.194855 
	C236.617371,420.273895 241.044052,406.352966 245.874710,391.927185 
	C246.153137,391.118408 246.431549,390.309631 246.993561,389.027283 
	C247.167175,388.504028 247.340790,387.980804 247.879669,387.002838 
	C248.041534,386.444244 248.203415,385.885681 248.829620,384.881714 
	C249.131302,384.086395 249.432983,383.291046 250.028122,382.026703 
	C250.235123,381.516266 250.442123,381.005798 251.038177,379.775146 
	C251.060196,379.122192 251.082230,378.469269 251.104248,377.816315 
	C250.588867,378.412354 250.073486,379.008392 249.143463,380.014099 
M263.271057,331.031799 
	C262.987610,331.520203 262.704163,332.008636 262.075562,332.862671 
	C261.990173,333.181885 261.904785,333.501068 261.305084,334.052979 
	C261.039429,334.549805 260.773773,335.046661 260.017517,336.136597 
	C260.068573,336.510468 260.119598,336.884369 260.170624,337.258240 
	C260.561279,336.953003 260.951935,336.647766 261.839020,336.015839 
	C262.142761,335.508606 262.446503,335.001343 263.056702,334.190308 
	C263.256836,333.968628 263.373688,333.709381 263.888214,333.029083 
	C264.198853,332.504181 264.509460,331.979279 265.118347,331.220428 
	C265.305847,331.040436 265.433411,330.824951 266.059143,329.906128 
	C266.150726,329.227264 266.242340,328.548431 266.333923,327.869568 
	C265.687073,328.410309 265.040222,328.951080 264.053802,329.848633 
	C263.854309,330.126892 263.762024,330.437042 263.271057,331.031799 
M768.793152,702.983704 
	C769.115173,702.479553 769.437134,701.975403 769.960144,700.966431 
	C769.865662,700.713074 769.771179,700.459656 769.676697,700.206299 
	C769.371216,700.390747 769.065735,700.575195 768.224731,701.020813 
	C767.899475,701.517334 767.574158,702.013855 766.693298,703.103271 
	C766.807129,703.489380 766.920898,703.875427 767.034668,704.261475 
	C767.442261,703.926758 767.849854,703.591980 768.793152,702.983704 
M789.709045,671.937195 
	C789.926758,671.414246 790.144531,670.891357 790.881958,669.928711 
	C790.773865,669.541626 790.665710,669.154602 790.557617,668.767517 
	C790.310364,669.117188 790.063110,669.466919 789.301453,670.070068 
	C789.084900,670.595276 788.868347,671.120422 788.124329,672.079407 
	C788.231262,672.467773 788.338196,672.856140 788.445129,673.244507 
	C788.697510,672.896423 788.949951,672.548401 789.709045,671.937195 
M249.282364,354.128235 
	C249.079468,354.722137 248.876572,355.316071 248.673676,355.909973 
	C249.218506,355.379883 249.763336,354.849792 250.852036,353.923218 
	C250.745773,353.545441 250.639496,353.167633 250.533249,352.789856 
	C250.306686,353.144623 250.080139,353.499390 249.282364,354.128235 
M610.699768,209.995850 
	C609.702881,209.827026 608.705994,209.658188 607.709106,209.489365 
	C607.622437,209.847672 607.535828,210.205978 607.449219,210.564285 
	C608.407104,210.919479 609.365051,211.274689 610.924255,211.931458 
	C611.793091,212.136932 612.661987,212.342422 614.250061,212.903961 
	C615.244751,213.041214 616.239380,213.178452 617.234070,213.315689 
	C617.310486,213.090820 617.386902,212.865952 617.463318,212.641083 
	C616.568848,212.210480 615.674316,211.779892 614.160156,211.033768 
	C613.271729,210.794937 612.383301,210.556107 610.699768,209.995850 
M446.708649,810.001648 
	C445.713013,809.896057 444.717377,809.790527 443.721771,809.684937 
	C443.668152,809.940857 443.614502,810.196716 443.560883,810.452576 
	C444.558319,810.802612 445.555756,811.152649 447.333862,811.893616 
	C448.621582,812.126038 449.909271,812.358398 451.196991,812.590820 
	C451.263367,812.165344 451.329742,811.739807 451.396118,811.314331 
	C450.092712,810.974670 448.789307,810.634949 446.708649,810.001648 
M260.155579,338.219360 
	C259.763306,338.134338 259.371002,338.049286 258.488037,338.253448 
	C258.117523,338.904877 257.747040,339.556305 256.931702,340.772949 
	C256.213806,342.132599 255.495911,343.492249 254.778030,344.851898 
	C255.132095,345.029022 255.486145,345.206146 255.840210,345.383301 
	C256.655640,344.015564 257.471069,342.647827 258.782623,340.968781 
	C259.131073,340.288727 259.479553,339.608704 260.155579,338.219360 
M786.168579,675.191162 
	C785.707336,676.170166 785.246155,677.149231 784.784973,678.128235 
	C785.064880,678.271606 785.344788,678.415039 785.624756,678.558472 
	C786.243713,677.523621 786.862671,676.488770 787.948486,674.931030 
	C787.830505,674.529236 787.712463,674.127441 787.594421,673.725586 
	C787.321228,674.075684 787.048035,674.425781 786.168579,675.191162 
M677.134033,772.194824 
	C677.890808,771.591125 678.647644,770.987366 679.404419,770.383667 
	C679.199219,770.153198 678.993958,769.922668 678.788757,769.692200 
	C677.800903,770.403442 676.813049,771.114624 675.145020,771.999634 
	C675.177185,772.357483 675.209351,772.715271 675.241516,773.073181 
	C675.645264,772.874695 676.048950,772.676208 677.134033,772.194824 
M781.851929,684.790894 
	C782.310608,683.809143 782.769348,682.827393 783.228027,681.845642 
	C782.973145,681.713562 782.718262,681.581482 782.463379,681.449402 
	C781.716858,682.441406 780.970398,683.433411 779.768127,684.990234 
	C779.436462,685.716187 779.104858,686.442139 778.773193,687.168152 
	C779.031677,687.321960 779.290222,687.475769 779.548767,687.629578 
	C780.118896,686.833252 780.689026,686.036926 781.851929,684.790894 
M789.978088,643.865295 
	C789.062683,645.753174 788.147339,647.640991 786.890137,650.197876 
	C786.995422,650.553223 787.100647,650.908630 787.205933,651.263977 
	C787.545715,650.917786 787.885559,650.571594 788.775574,649.833435 
	C789.619263,647.985718 790.462891,646.138000 791.862488,643.743469 
	C791.970825,643.050598 792.079163,642.357727 792.187561,641.664856 
	C791.977234,641.590149 791.766968,641.515381 791.556702,641.440674 
	C791.160583,642.053711 790.764465,642.666748 789.978088,643.865295 
M690.811401,763.905884 
	C712.799316,749.836853 732.911621,733.464417 750.523621,714.191040 
	C793.923950,666.696655 822.720703,612.182800 829.727783,547.391541 
	C830.191406,543.104675 829.788269,538.724182 829.788269,534.387207 
	C828.841858,536.628845 828.433899,538.868958 828.127258,541.122803 
	C819.989868,600.934998 797.038574,654.259460 758.096375,700.511902 
	C737.919495,724.476440 714.125610,744.503479 688.331360,763.242920 
	C687.009216,764.326477 685.687134,765.410095 684.364990,766.493652 
	C684.638000,766.826904 684.911011,767.160095 685.183960,767.493286 
	C686.839844,766.358643 688.495728,765.223999 690.811401,763.905884 
M214.596313,466.042725 
	C214.086639,470.993286 213.576981,475.943878 213.067307,480.894440 
	C213.630676,480.994049 214.194046,481.093658 214.757416,481.193268 
	C227.790695,384.705292 275.667053,309.822693 354.945770,254.194458 
	C353.312347,254.322906 352.042145,254.840118 350.907867,255.568848 
	C303.428680,286.072266 267.066559,326.593353 241.936584,377.096558 
	C228.084900,404.934021 218.178513,434.061218 214.596313,466.042725 
M214.009064,494.682892 
	C214.214966,491.761841 214.420868,488.840820 214.627487,485.919800 
	C211.776917,488.752625 210.753387,502.649017 212.772293,514.333130 
	C213.270737,507.463776 213.700577,501.539612 214.009064,494.682892 
M253.806732,374.067535 
	C255.983109,369.737793 258.159515,365.408081 260.335876,361.078339 
	C259.796844,360.831940 259.257812,360.585571 258.718781,360.339203 
	C256.796753,365.007904 254.874741,369.676636 253.806732,374.067535 
M286.388153,303.808929 
	C285.801147,303.350464 285.214142,302.891998 284.627106,302.433533 
	C283.154083,304.326935 281.681061,306.220337 280.208038,308.113739 
	C280.846191,308.687866 281.484314,309.262024 282.122437,309.836151 
	C283.363281,308.082581 284.604126,306.329010 286.388153,303.808929 
M752.771423,311.376923 
	C751.562317,310.330902 750.353210,309.284882 749.144165,308.238861 
	C748.850952,308.572021 748.557739,308.905151 748.264465,309.238312 
	C749.491516,310.694244 750.718506,312.150208 751.945496,313.606110 
	C752.410889,313.121399 752.876282,312.636658 752.771423,311.376923 
M683.431763,768.668762 
	C683.776978,768.221924 684.122253,767.775085 684.467468,767.328247 
	C684.258362,767.068054 684.049255,766.807861 683.840149,766.547668 
	C682.464050,767.487915 681.087891,768.428223 679.711792,769.368469 
	C679.893555,769.670044 680.075378,769.971619 680.257141,770.273132 
	C681.071228,769.882080 681.885254,769.490967 683.431763,768.668762 
M254.603271,345.717133 
	C253.643326,347.044922 252.683395,348.372681 251.723450,349.700439 
	C252.096786,349.930420 252.470108,350.160370 252.843445,350.390350 
	C253.585159,349.054474 254.326874,347.718628 254.603271,345.717133 
M755.385986,716.971497 
	C756.811279,716.215881 758.236511,715.460266 759.661804,714.704651 
	C758.908691,713.769226 758.155518,712.833862 757.402405,711.898499 
	C756.850891,713.255127 756.299316,714.611755 755.385986,716.971497 
M761.456360,709.762207 
	C762.498230,709.370117 763.540161,708.978027 764.582031,708.585938 
	C764.305298,708.165466 764.028564,707.744934 763.751831,707.324463 
	C763.165039,707.800598 762.578308,708.276733 761.456360,709.762207 
M278.717133,309.770477 
	C278.323883,310.596100 277.930634,311.421722 277.537415,312.247345 
	C278.028900,312.424561 278.520416,312.601776 279.011932,312.778992 
	C279.280945,311.604980 279.549957,310.430969 278.717133,309.770477 
M777.756104,689.712097 
	C778.256042,689.221741 778.771667,688.744934 779.226929,688.216125 
	C779.264282,688.172729 778.891052,687.775879 778.708557,687.543274 
	C778.220215,688.066467 777.731934,688.589722 777.756104,689.712097 
M784.585449,678.695312 
	C784.016785,679.398315 783.448059,680.101379 782.879395,680.804443 
	C783.114624,680.987366 783.349792,681.170288 783.585022,681.353210 
	C784.085144,680.705933 784.585327,680.058594 784.585449,678.695312 
M441.703674,808.837463 
	C440.957489,808.945923 440.211304,809.054321 439.465118,809.162720 
	C439.566223,809.481750 439.667297,809.800781 439.768402,810.119751 
	C440.694305,809.763489 441.620178,809.407227 441.703674,808.837463 
M267.435333,325.660095 
	C268.012665,325.530426 268.627930,325.477692 269.143768,325.223297 
	C269.294708,325.148865 269.162781,324.500854 269.160522,324.115753 
	C268.703217,324.276917 268.245941,324.438080 267.435333,325.660095 
M618.328674,212.766357 
	C618.297546,213.114594 618.266479,213.462830 618.235413,213.811066 
	C618.630310,213.816147 619.025269,213.821228 619.420166,213.826324 
	C619.321960,213.529251 619.223755,213.232193 618.328674,212.766357 
M786.000000,652.500000 
	C786.200012,652.633362 786.399963,652.766663 786.599976,652.900024 
	C786.566650,652.600037 786.533325,652.299988 786.000000,652.500000 
M732.477722,290.561829 
	C732.477722,290.561829 732.512939,290.521881 732.477722,290.561829 
M673.502747,774.008057 
	C673.632507,773.816833 673.762207,773.625610 673.891968,773.434387 
	C673.597778,773.467773 673.303650,773.501160 673.502747,774.008057 
M791.501343,667.999817 
	C791.535095,667.700012 791.568848,667.400269 791.602600,667.100464 
	C791.403442,667.233521 791.204285,667.366516 791.501343,667.999817 
M251.499985,352.000000 
	C251.633316,351.799988 251.766647,351.599976 251.899994,351.399994 
	C251.599991,351.433319 251.300003,351.466675 251.499985,352.000000 
M793.005554,665.496765 
	C792.775330,665.418335 792.545166,665.339966 792.314941,665.261536 
	C792.393005,665.501038 792.471069,665.740540 793.005554,665.496765 
M785.485596,654.932922 
	C785.616455,654.746704 785.747253,654.560547 785.878052,654.374329 
	C785.588379,654.402100 785.298645,654.429932 785.485596,654.932922 
M765.984802,706.500916 
	C765.788025,706.367615 765.591187,706.234314 765.394348,706.101074 
	C765.426758,706.400269 765.459106,706.699524 765.984802,706.500916 
M746.000977,306.500000 
	C746.200745,306.633240 746.400513,306.766479 746.600281,306.899719 
	C746.566833,306.599823 746.533447,306.299896 746.000977,306.500000 
z"/>
<path fill="#A6A6A6" opacity="1.000000" stroke="none" 
	d="
M413.098022,212.430237 
	C411.897400,212.784210 410.986664,212.971634 410.075958,213.159073 
	C409.972198,212.784912 409.868439,212.410751 409.764679,212.036591 
	C418.929352,209.118149 428.094025,206.199707 437.258698,203.281265 
	C437.383606,203.673309 437.508514,204.065369 437.633423,204.457413 
	C429.551605,207.059509 421.469757,209.661591 413.098022,212.430237 
z"/>
<path fill="#CACACA" opacity="1.000000" stroke="none" 
	d="
M733.706177,742.153625 
	C734.145386,742.339966 734.343201,742.584656 734.818848,742.892822 
	C729.601379,747.654968 724.178772,752.294983 718.273804,756.837891 
	C717.791321,756.740784 717.480042,756.387146 717.480042,756.387146 
	C722.784058,751.681702 728.088135,746.976196 733.706177,742.153625 
z"/>
<path fill="#CFCFCF" opacity="1.000000" stroke="none" 
	d="
M299.376862,285.983948 
	C298.858276,285.827271 298.651672,285.543060 298.215607,285.125366 
	C303.045746,280.140747 308.105316,275.289642 313.164917,270.438538 
	C313.456238,270.750641 313.747559,271.062744 314.038879,271.374847 
	C309.255524,276.202057 304.472198,281.029236 299.376862,285.983948 
z"/>
<path fill="#CACACA" opacity="1.000000" stroke="none" 
	d="
M716.410339,758.556519 
	C715.774292,758.934998 715.138245,759.313477 714.327271,759.796021 
	C714.763489,759.085083 715.106995,758.525146 715.812500,758.102783 
	C716.174500,758.240356 716.410339,758.556519 716.410339,758.556519 
z"/>
<path fill="#CACACA" opacity="1.000000" stroke="none" 
	d="
M717.941956,756.921753 
	C717.701050,757.497864 717.309509,757.892883 716.664185,758.422241 
	C716.410339,758.556519 716.174500,758.240356 716.054993,758.083496 
	C716.293640,757.517212 716.651855,757.107788 717.245056,756.542786 
	C717.480042,756.387146 717.791321,756.740784 717.941956,756.921753 
z"/>
<path fill="#CFCFCF" opacity="1.000000" stroke="none" 
	d="
M315.229370,269.434174 
	C315.023987,269.353149 314.892181,269.381958 314.760406,269.410736 
	C314.941254,269.455139 315.122101,269.499573 315.229370,269.434174 
z"/>
<path fill="#A6A6A6" opacity="1.000000" stroke="none" 
	d="
M440.522339,203.009216 
	C440.521332,202.932190 440.420837,203.014084 440.420837,203.014084 
	C440.420837,203.014084 440.523315,203.086227 440.522339,203.009216 
z"/>
<path fill="#171717" opacity="1.000000" stroke="none" 
	d="
M797.446411,627.525024 
	C802.761414,609.983337 808.076477,592.441589 813.651794,574.169128 
	C814.769470,568.428162 815.626831,563.417847 816.484253,558.407593 
	C816.043396,558.338013 815.602478,558.268372 815.161621,558.198792 
	C814.137756,563.474670 813.113831,568.750488 812.089966,574.026367 
	C802.905518,612.433411 787.443848,648.106079 764.594116,680.336975 
	C721.257019,741.466309 663.329163,781.798401 590.777649,800.901917 
	C561.725525,808.551697 532.148499,812.007629 502.192078,809.598267 
	C464.524811,806.568848 428.501312,796.764038 394.727783,779.705811 
	C317.579803,740.740051 265.319092,680.131531 238.042603,598.059387 
	C237.548477,596.572571 237.041061,595.090149 235.922394,593.836487 
	C240.990005,615.797668 249.425430,636.491760 259.963593,656.387329 
	C270.530518,676.337219 283.482605,694.700928 298.000610,712.018738 
	C297.617462,712.392212 297.234344,712.765747 296.851196,713.139282 
	C295.642365,712.098083 294.317963,711.163879 293.241516,710.000183 
	C261.179535,675.339844 239.696289,635.000671 228.463989,589.169922 
	C211.913834,521.640869 216.951279,455.807770 244.431763,391.734375 
	C245.078751,391.987885 245.274734,392.209930 245.470718,392.432007 
	C241.044052,406.352966 236.617371,420.273895 232.029282,434.940338 
	C230.893219,440.275055 229.918579,444.864288 228.943939,449.453522 
	C229.415710,449.547394 229.887482,449.641266 230.359253,449.735168 
	C231.496750,444.806488 232.634232,439.877808 233.771729,434.949127 
	C246.041580,389.614105 267.095642,348.806030 297.861115,313.319275 
	C342.161774,262.220215 397.864410,229.766907 463.744965,215.314316 
	C482.020844,211.305038 500.936249,208.666794 519.611633,208.326096 
	C566.525574,207.470215 610.946045,218.884796 652.544189,240.534637 
	C733.768250,282.807831 785.730896,348.768890 810.374390,436.377075 
	C812.136597,431.074738 800.276306,395.047485 789.319946,372.511719 
	C779.356750,352.018677 767.424255,332.767426 752.910767,315.099457 
	C753.308289,314.728516 753.705811,314.357574 754.103333,313.986603 
	C755.260681,315.018707 756.546936,315.938660 757.556641,317.099243 
	C786.129822,349.942200 805.611145,387.560181 815.782776,429.838837 
	C832.121765,497.751862 826.589661,563.925110 798.536133,628.163086 
	C797.857910,627.940002 797.652100,627.732483 797.446411,627.525024 
M506.130127,584.024475 
	C504.190247,584.175354 502.250336,584.326172 500.002655,584.616333 
	C499.811157,584.746277 499.666351,584.916077 498.951996,585.658691 
	C499.048767,588.242615 498.459198,591.159058 499.491486,593.289795 
	C500.144043,594.636780 503.217163,594.811096 505.204590,595.511353 
	C505.292480,595.255737 505.380371,595.000122 505.468262,594.744507 
	C503.520172,593.657654 501.572083,592.570740 499.623993,591.483826 
	C499.833038,590.991699 500.042084,590.499512 500.251129,590.007324 
	C503.131256,590.007324 506.011414,590.007324 509.720642,590.007324 
	C508.772339,587.969971 508.124512,586.578186 507.262787,584.884155 
	C507.095673,584.693909 506.892517,584.557190 506.130127,584.024475 
M555.786133,584.631348 
	C554.310486,584.411011 552.834778,584.190613 551.671143,584.016846 
	C551.671143,587.776001 551.671143,591.342529 551.671143,594.704407 
	C553.216797,591.025208 554.719177,587.449097 556.072266,584.024780 
	C556.072266,584.024780 556.141541,583.848206 556.141541,583.848206 
	C556.141541,583.848206 556.134644,583.987976 555.786133,584.631348 
M515.786133,584.631409 
	C514.310486,584.411072 512.834839,584.190735 511.671204,584.017029 
	C511.671204,587.765564 511.671204,591.338318 511.671204,594.704102 
	C513.213440,591.033081 514.717529,587.453003 516.072266,584.024780 
	C516.072266,584.024780 516.141541,583.848206 516.141541,583.848206 
	C516.141541,583.848206 516.134644,583.987976 515.786133,584.631409 
M388.414459,483.081573 
	C392.064301,474.063995 395.714142,465.046448 399.874298,454.768005 
	C402.428741,471.635406 402.008698,487.474182 405.522125,502.526154 
	C408.574554,502.098572 410.699127,501.800964 413.282349,501.439117 
	C411.116241,481.276001 408.960602,461.210083 406.811707,441.207153 
	C400.476440,441.595459 400.473267,441.594147 398.548920,446.239868 
	C397.659729,448.386475 396.800201,450.545410 395.902313,452.688354 
	C391.236664,463.823822 386.562988,474.955933 381.892120,486.089233 
	C381.532349,486.070740 381.172577,486.052277 380.812805,486.033783 
	C377.419312,471.225922 374.025787,456.418030 370.273499,440.044464 
	C367.398346,441.593689 363.685089,442.390503 363.304138,443.983948 
	C358.981079,462.067688 355.143677,480.268066 351.239227,498.450745 
	C350.514313,501.826721 351.882507,504.105835 356.057251,505.459656 
	C358.931213,488.902344 361.740173,472.719330 364.549164,456.536346 
	C366.072662,458.424866 366.555237,460.269592 366.985077,462.126526 
	C369.719727,473.940643 372.372894,485.774506 375.252197,497.553162 
	C375.640594,499.142120 377.147003,500.457794 378.135742,501.900024 
	C379.520966,500.626801 381.435059,499.607666 382.191742,498.032501 
	C384.414856,493.404663 386.178314,488.555969 388.414459,483.081573 
M526.842102,460.513794 
	C527.257812,456.378815 527.700928,452.246338 528.080505,448.108063 
	C528.379761,444.846008 526.964417,443.097687 522.282104,443.109894 
	C521.135559,452.056213 519.981934,461.057068 518.818481,470.135284 
	C507.976379,465.044250 500.466614,466.452789 494.871246,475.710663 
	C492.352539,479.877960 491.092865,485.274384 490.795807,490.205505 
	C490.360779,497.426941 493.981171,501.580414 500.402496,503.513611 
	C505.873108,505.160614 511.080353,503.167084 515.163269,497.820190 
	C516.264954,496.377472 517.281250,494.869568 518.773560,492.779968 
	C519.294800,505.608124 519.294800,505.608124 525.214478,502.619629 
	C525.732300,488.620422 526.235413,475.017914 526.842102,460.513794 
M552.235962,450.306091 
	C557.781921,450.635071 563.327942,450.964050 568.220337,451.254242 
	C567.235718,464.291077 566.171692,477.049835 565.382629,489.825531 
	C565.200806,492.768768 565.419250,495.986176 566.485413,498.667023 
	C567.165771,500.377716 569.743652,501.333771 571.470703,502.628204 
	C572.329529,501.000458 573.847229,499.406616 573.933044,497.739105 
	C574.301025,490.587128 574.293701,483.413727 574.335632,476.247650 
	C574.386047,467.642181 574.347534,459.036224 574.347534,450.580444 
	C584.352905,449.244751 593.056702,448.082825 601.760559,446.920868 
	C601.713257,446.170380 601.666016,445.419922 601.618774,444.669434 
	C582.727356,437.901825 563.407715,445.654205 544.247253,443.673431 
	C543.637451,449.761993 548.065308,449.316223 552.235962,450.306091 
M602.484009,502.094482 
	C607.680603,505.329834 607.745239,505.287628 615.035339,493.654663 
	C615.278198,496.097595 614.892456,498.497894 615.845703,500.102905 
	C616.871277,501.829590 619.152649,502.810425 620.886047,504.116699 
	C621.415039,502.504028 622.304871,500.910339 622.390747,499.274414 
	C622.529358,496.635590 622.016907,493.969971 621.994202,491.313873 
	C621.928833,483.687408 621.971130,476.060028 621.971130,467.919434 
	C621.115723,467.729187 619.442017,467.356964 617.768005,466.984680 
	C614.060852,477.915466 613.234131,489.526672 605.037109,497.839050 
	C604.279724,497.705811 603.522400,497.572571 602.765015,497.439331 
	C603.249329,487.549591 603.733643,477.659851 604.223877,467.650116 
	C602.197998,467.650116 600.247070,467.650116 597.136902,467.650116 
	C596.783508,475.285278 596.396851,482.851746 596.096069,490.421600 
	C595.905029,495.228333 597.357483,499.260895 602.484009,502.094482 
M649.835205,500.367584 
	C651.612427,501.426941 653.389709,502.486328 656.100586,504.102264 
	C656.100586,497.877472 656.009277,493.408722 656.125427,488.945374 
	C656.250732,484.127899 656.866455,479.305481 656.704407,474.504242 
	C656.589844,471.110107 655.268921,467.945618 651.324341,466.977081 
	C647.247131,465.975983 645.009827,468.498657 643.340149,471.495728 
	C641.462036,474.866913 639.984009,478.460999 638.331970,481.958160 
	C638.046875,481.903564 637.761719,481.848938 637.476562,481.794342 
	C637.476562,476.956421 637.476562,472.118469 637.476562,467.166595 
	C635.165405,467.747620 633.401123,468.191162 631.863892,468.577606 
	C631.208069,477.969788 630.599915,487.261200 629.897339,496.545471 
	C629.392883,503.211731 629.336609,503.207458 636.025818,503.090454 
	C640.158386,492.538208 641.009888,480.630768 648.855957,471.328430 
	C649.812500,475.889587 649.845703,480.277435 649.803650,484.664581 
	C649.756042,489.631958 649.640869,494.598724 649.835205,500.367584 
M668.149841,488.254791 
	C668.322571,486.394897 668.495300,484.535004 668.733643,481.968597 
	C670.082092,483.085236 670.671753,483.646698 671.331421,484.108124 
	C676.216797,487.525604 683.459351,486.691528 687.171509,482.303345 
	C690.096436,478.845703 690.017639,473.775330 686.987000,470.430817 
	C683.151001,466.197632 676.788452,465.945099 671.662109,470.142395 
	C665.332214,475.325226 662.335144,482.110748 662.847717,490.342529 
	C663.425659,499.625488 670.623535,505.925079 679.496277,504.942657 
	C687.833679,504.019562 693.278748,495.790802 691.423889,486.311127 
	C687.333374,492.146454 684.162170,499.160065 675.436523,497.584534 
	C670.885864,496.762878 668.962585,493.310608 668.149841,488.254791 
M455.721924,482.473297 
	C455.456207,484.435455 454.996124,486.393890 454.958710,488.360382 
	C454.802399,496.581207 458.946503,502.380188 465.976288,503.997498 
	C473.433807,505.713196 480.539764,502.108948 483.875275,494.783447 
	C486.385620,489.270142 486.674133,483.533600 484.826599,477.790619 
	C481.759735,468.257446 471.386841,464.725586 463.708221,471.075104 
	C460.435944,473.781036 458.494202,478.096039 455.721924,482.473297 
M419.920410,482.624115 
	C419.646210,484.254974 419.212158,485.877350 419.124634,487.518158 
	C418.668365,496.070465 423.038025,502.422150 430.376892,504.023560 
	C438.081757,505.704742 445.742157,502.058014 448.146118,494.102570 
	C449.650360,489.124634 450.057800,483.175537 448.868561,478.157227 
	C446.426727,467.853302 435.397034,464.552887 427.405609,471.458740 
	C424.297119,474.144958 422.481842,478.327728 419.920410,482.624115 
M562.876831,590.055969 
	C564.989807,590.055969 567.102783,590.055969 569.271606,590.055969 
	C569.414612,585.604797 567.198730,583.133057 563.671143,583.556274 
	C561.635986,583.800476 558.558533,586.419983 558.380005,588.212463 
	C558.167542,590.344543 560.082642,593.409180 561.998840,594.773010 
	C563.224854,595.645630 566.120483,594.172363 568.267639,593.750732 
	C568.112732,593.262146 567.957886,592.773499 567.802979,592.284912 
	C566.489807,592.818726 565.053223,593.962280 563.895630,593.727844 
	C562.532166,593.451721 561.410461,591.981812 560.183960,591.029480 
	C560.809448,590.705566 561.434937,590.381653 562.876831,590.055969 
M486.919922,584.102905 
	C486.342133,584.689453 485.286377,585.263184 485.270142,585.864868 
	C485.203644,588.332031 484.717407,591.246155 485.839325,593.130188 
	C486.623230,594.446594 489.850494,595.002808 491.837067,594.745483 
	C494.821075,594.358765 495.783173,592.010498 495.372803,588.930298 
	C495.047607,586.489502 495.317749,583.971802 495.269501,581.489319 
	C495.262238,581.117310 494.959015,580.751099 494.710388,580.199585 
	C494.146149,581.651978 493.684753,582.839600 493.318634,583.782043 
	C491.189819,583.782043 489.436646,583.782043 486.919922,584.102905 
M457.798798,582.962280 
	C457.597626,581.834961 457.396454,580.707581 457.195282,579.580261 
	C454.798737,586.944824 455.421112,592.737732 458.903961,594.086548 
	C461.139099,594.952271 464.502411,594.722412 466.634827,593.602661 
	C469.699432,591.993225 469.968842,584.910950 467.436523,579.806580 
	C467.006805,582.660278 467.549652,585.677307 466.824677,588.350464 
	C466.301697,590.278870 464.325195,592.807495 462.582733,593.192322 
	C459.482361,593.876953 457.937408,591.421570 457.894958,588.285889 
	C457.874756,586.796021 457.831848,585.306396 457.798798,582.962280 
M472.051178,586.348389 
	C472.051178,589.173035 472.051178,591.997681 472.051178,594.822327 
	C472.693237,594.830017 473.335297,594.837708 473.977356,594.845398 
	C473.977356,592.854675 473.461487,590.664001 474.132172,588.933167 
	C474.723755,587.406433 476.639832,586.392883 477.971039,585.152710 
	C478.669434,586.439209 479.688202,587.655579 479.988892,589.029114 
	C480.408020,590.943604 480.290070,592.975586 480.402008,594.957275 
	C480.957428,594.943970 481.512878,594.930664 482.068329,594.917358 
	C482.068329,592.596924 482.373657,590.220886 481.964233,587.975098 
	C481.676758,586.398010 480.383606,583.733276 479.595093,583.753174 
	C477.067383,583.817078 474.565491,584.903748 472.051178,586.348389 
M518.115417,590.976379 
	C521.432495,596.387756 524.991821,596.891113 527.406494,593.160950 
	C525.470032,592.877136 522.940002,593.000183 521.000061,591.989929 
	C520.171875,591.558716 519.947754,587.560181 520.531311,587.255554 
	C522.684082,586.131714 525.289246,585.874451 527.724365,585.291321 
	C525.948181,584.348816 523.179199,583.136169 521.770020,584.041016 
	C519.944397,585.213379 519.202698,588.073669 518.115417,590.976379 
M585.783875,594.720215 
	C586.948303,594.720215 588.112732,594.720215 590.081482,594.720215 
	C585.494995,592.142456 585.121521,587.195618 588.028503,584.411987 
	C587.158508,582.839172 586.374939,581.422668 585.591431,580.006104 
	C585.219604,580.017090 584.847778,580.028015 584.475952,580.038940 
	C584.728821,584.741699 584.981689,589.444397 585.783875,594.720215 
M227.104782,468.771637 
	C227.647339,465.085602 228.189896,461.399536 228.732437,457.713501 
	C228.245148,457.659119 227.757843,457.604767 227.270538,457.550385 
	C226.413193,465.406403 225.555847,473.262421 224.698502,481.118439 
	C224.880692,481.139496 225.062881,481.160583 225.245056,481.181641 
	C225.851334,477.340546 226.457596,473.499420 227.104782,468.771637 
M224.054321,507.555664 
	C224.237823,503.648315 224.421341,499.740967 224.604843,495.833649 
	C224.303436,495.842621 224.002014,495.851593 223.700592,495.860565 
	C223.700592,503.843872 223.700592,511.827148 223.700592,519.810486 
	C223.816711,519.799255 223.932816,519.788025 224.048935,519.776794 
	C224.048935,516.020447 224.048935,512.264038 224.054321,507.555664 
z"/>
<path fill="#262626" opacity="1.000000" stroke="none" 
	d="
M214.664963,465.595673 
	C218.178513,434.061218 228.084900,404.934021 241.936584,377.096558 
	C267.066559,326.593353 303.428680,286.072266 350.907867,255.568848 
	C352.042145,254.840118 353.312347,254.322906 354.945770,254.194458 
	C275.667053,309.822693 227.790695,384.705292 214.757416,481.193268 
	C214.194046,481.093658 213.630676,480.994049 213.067307,480.894440 
	C213.576981,475.943878 214.086639,470.993286 214.664963,465.595673 
z"/>
<path fill="#252525" opacity="1.000000" stroke="none" 
	d="
M689.031616,763.067993 
	C714.125610,744.503479 737.919495,724.476440 758.096375,700.511902 
	C797.038574,654.259460 819.989868,600.934998 828.127258,541.122803 
	C828.433899,538.868958 828.841858,536.628845 829.788269,534.387207 
	C829.788269,538.724182 830.191406,543.104675 829.727783,547.391541 
	C822.720703,612.182800 793.923950,666.696655 750.523621,714.191040 
	C732.911621,733.464417 712.799316,749.836853 690.255005,763.871948 
	C689.476257,763.581299 689.253906,763.324646 689.031616,763.067993 
z"/>
<path fill="#A6A6A6" opacity="1.000000" stroke="none" 
	d="
M214.069748,495.149170 
	C213.700577,501.539612 213.270737,507.463776 212.772293,514.333130 
	C210.753387,502.649017 211.776917,488.752625 214.627136,485.919800 
	C214.420868,488.840820 214.214966,491.761841 214.069748,495.149170 
z"/>
<path fill="#CFCFCF" opacity="1.000000" stroke="none" 
	d="
M233.502075,434.937347 
	C232.634232,439.877808 231.496750,444.806488 230.359253,449.735168 
	C229.887482,449.641266 229.415710,449.547394 228.943939,449.453522 
	C229.918579,444.864288 230.893219,440.275055 232.010941,435.327087 
	C232.513504,434.954102 232.872971,434.939819 233.502075,434.937347 
z"/>
<path fill="#CACACA" opacity="1.000000" stroke="none" 
	d="
M812.449463,574.043091 
	C813.113831,568.750488 814.137756,563.474670 815.161621,558.198792 
	C815.602478,558.268372 816.043396,558.338013 816.484253,558.407593 
	C815.626831,563.417847 814.769470,568.428162 813.720337,573.746094 
	C813.288696,574.055847 813.048828,574.057800 812.449463,574.043091 
z"/>
<path fill="#424242" opacity="1.000000" stroke="none" 
	d="
M313.736389,730.258240 
	C310.540375,727.399353 307.344330,724.540466 304.275543,721.225769 
	C304.623871,720.474792 304.844940,720.179688 305.066040,719.884583 
	C308.117035,722.906677 311.168060,725.928711 314.194153,729.406982 
	C314.024963,729.994812 313.880676,730.126526 313.736389,730.258240 
z"/>
<path fill="#4E4E4E" opacity="1.000000" stroke="none" 
	d="
M253.379730,374.206421 
	C254.874741,369.676636 256.796753,365.007904 258.718781,360.339203 
	C259.257812,360.585571 259.796844,360.831940 260.335876,361.078339 
	C258.159515,365.408081 255.983109,369.737793 253.379730,374.206421 
z"/>
<path fill="#565656" opacity="1.000000" stroke="none" 
	d="
M736.488281,294.479980 
	C738.640442,296.584473 740.792603,298.688965 742.978516,301.524048 
	C742.989441,302.536163 742.966614,302.817657 742.943848,303.099121 
	C740.631775,300.692780 738.319702,298.286438 736.059937,295.380676 
	C736.237610,294.747467 736.362976,294.613708 736.488281,294.479980 
z"/>
<path fill="#424242" opacity="1.000000" stroke="none" 
	d="
M796.791260,632.933777 
	C795.487000,635.825073 794.182800,638.716370 792.878540,641.607727 
	C792.413818,641.393555 791.949158,641.179443 791.484436,640.965271 
	C792.741760,638.039368 793.999023,635.113403 795.683655,632.182373 
	C796.337769,632.429443 796.564514,632.681641 796.791260,632.933777 
z"/>
<path fill="#171717" opacity="1.000000" stroke="none" 
	d="
M304.909973,719.571228 
	C304.844940,720.179688 304.623871,720.474792 304.161041,720.908936 
	C301.937897,719.108521 299.956512,717.169128 297.975098,715.229736 
	C298.434662,714.757996 298.894196,714.286255 299.353760,713.814514 
	C301.153809,715.628967 302.953827,717.443420 304.909973,719.571228 
z"/>
<path fill="#161616" opacity="1.000000" stroke="none" 
	d="
M286.116547,304.192169 
	C284.604126,306.329010 283.363281,308.082581 282.122437,309.836151 
	C281.484314,309.262024 280.846191,308.687866 280.208038,308.113739 
	C281.681061,306.220337 283.154083,304.326935 284.627106,302.433533 
	C285.214142,302.891998 285.801147,303.350464 286.116547,304.192169 
z"/>
<path fill="#424242" opacity="1.000000" stroke="none" 
	d="
M688.681519,763.155457 
	C689.253906,763.324646 689.476257,763.581299 689.925049,763.963684 
	C688.495728,765.223999 686.839844,766.358643 685.183960,767.493286 
	C684.911011,767.160095 684.638000,766.826904 684.364990,766.493652 
	C685.687134,765.410095 687.009216,764.326477 688.681519,763.155457 
z"/>
<path fill="#171717" opacity="1.000000" stroke="none" 
	d="
M753.056519,311.764404 
	C752.876282,312.636658 752.410889,313.121399 751.945496,313.606140 
	C750.718506,312.150208 749.491516,310.694244 748.264465,309.238312 
	C748.557739,308.905151 748.850952,308.572021 749.144165,308.238861 
	C750.353210,309.284882 751.562317,310.330902 753.056519,311.764404 
z"/>
<path fill="#424242" opacity="1.000000" stroke="none" 
	d="
M787.231995,649.528870 
	C788.147339,647.640991 789.062683,645.753174 790.404175,643.828491 
	C790.989075,643.957947 791.147827,644.124146 791.306519,644.290283 
	C790.462891,646.138000 789.619263,647.985718 788.258301,649.846436 
	C787.571350,649.749329 787.401672,649.639099 787.231995,649.528870 
z"/>
<path fill="#424242" opacity="1.000000" stroke="none" 
	d="
M683.065552,768.884338 
	C681.885254,769.490967 681.071228,769.882080 680.257141,770.273132 
	C680.075378,769.971619 679.893555,769.670044 679.711792,769.368469 
	C681.087891,768.428223 682.464050,767.487915 683.840149,766.547668 
	C684.049255,766.807861 684.258362,767.068054 684.467468,767.328247 
	C684.122253,767.775085 683.776978,768.221924 683.065552,768.884338 
z"/>
<path fill="#4E4E4E" opacity="1.000000" stroke="none" 
	d="
M254.835938,346.049927 
	C254.326874,347.718628 253.585159,349.054474 252.843445,350.390350 
	C252.470108,350.160370 252.096786,349.930420 251.723450,349.700439 
	C252.683395,348.372681 253.643326,347.044922 254.835938,346.049927 
z"/>
<path fill="#4E4E4E" opacity="1.000000" stroke="none" 
	d="
M258.286530,341.280090 
	C257.471069,342.647827 256.655640,344.015564 255.840210,345.383301 
	C255.486145,345.206146 255.132095,345.029022 254.778030,344.851898 
	C255.495911,343.492249 256.213806,342.132599 257.371948,340.766632 
	C257.970337,340.933563 258.128418,341.106842 258.286530,341.280090 
z"/>
<path fill="#161616" opacity="1.000000" stroke="none" 
	d="
M755.566895,716.469971 
	C756.299316,714.611755 756.850891,713.255127 757.402405,711.898499 
	C758.155518,712.833862 758.908691,713.769226 759.661804,714.704651 
	C758.236511,715.460266 756.811279,716.215881 755.566895,716.469971 
z"/>
<path fill="#565656" opacity="1.000000" stroke="none" 
	d="
M780.223877,684.425354 
	C780.970398,683.433411 781.716858,682.441406 782.463379,681.449402 
	C782.718262,681.581482 782.973145,681.713562 783.228027,681.845642 
	C782.769348,682.827393 782.310608,683.809143 781.302246,684.804932 
	C780.576355,684.687744 780.400085,684.556519 780.223877,684.425354 
z"/>
<path fill="#424242" opacity="1.000000" stroke="none" 
	d="
M675.825256,771.825867 
	C676.813049,771.114624 677.800903,770.403442 678.788757,769.692200 
	C678.993958,769.922668 679.199219,770.153198 679.404419,770.383667 
	C678.647644,770.987366 677.890808,771.591125 676.637634,772.172241 
	C676.141235,772.149597 675.825256,771.825867 675.825256,771.825867 
z"/>
<path fill="#565656" opacity="1.000000" stroke="none" 
	d="
M787.481628,675.453918 
	C786.862671,676.488770 786.243713,677.523621 785.624756,678.558472 
	C785.344788,678.415039 785.064880,678.271606 784.784973,678.128235 
	C785.246155,677.149231 785.707336,676.170166 786.647339,675.154175 
	C787.126099,675.117126 787.481628,675.453918 787.481628,675.453918 
z"/>
<path fill="#161616" opacity="1.000000" stroke="none" 
	d="
M761.723999,709.257568 
	C762.578308,708.276733 763.165039,707.800598 763.751831,707.324463 
	C764.028564,707.744934 764.305298,708.165466 764.582031,708.585938 
	C763.540161,708.978027 762.498230,709.370117 761.723999,709.257568 
z"/>
<path fill="#161616" opacity="1.000000" stroke="none" 
	d="
M279.268066,309.513733 
	C279.549957,310.430969 279.280945,311.604980 279.011932,312.778992 
	C278.520416,312.601776 278.028900,312.424561 277.537415,312.247345 
	C277.930634,311.421722 278.323883,310.596100 279.268066,309.513733 
z"/>
<path fill="#565656" opacity="1.000000" stroke="none" 
	d="
M777.499878,689.412537 
	C777.731934,688.589722 778.220215,688.066467 778.708557,687.543274 
	C778.891052,687.775879 779.264282,688.172729 779.226929,688.216125 
	C778.771667,688.744934 778.256042,689.221741 777.499878,689.412537 
z"/>
<path fill="#4E4E4E" opacity="1.000000" stroke="none" 
	d="
M257.594391,340.484039 
	C257.747040,339.556305 258.117523,338.904877 258.858704,338.286682 
	C259.352295,338.598236 259.551849,338.801147 259.828033,338.928650 
	C259.479553,339.608704 259.131073,340.288727 258.534576,341.124451 
	C258.128418,341.106842 257.970337,340.933563 257.594391,340.484039 
z"/>
<path fill="#565656" opacity="1.000000" stroke="none" 
	d="
M784.835449,679.053345 
	C784.585327,680.058594 784.085144,680.705933 783.585022,681.353210 
	C783.349792,681.170288 783.114624,680.987366 782.879395,680.804443 
	C783.448059,680.101379 784.016785,679.398315 784.835449,679.053345 
z"/>
<path fill="#161616" opacity="1.000000" stroke="none" 
	d="
M442.124878,808.944214 
	C441.620178,809.407227 440.694305,809.763489 439.768402,810.119751 
	C439.667297,809.800781 439.566223,809.481750 439.465118,809.162720 
	C440.211304,809.054321 440.957489,808.945923 442.124878,808.944214 
z"/>
<path fill="#565656" opacity="1.000000" stroke="none" 
	d="
M781.005920,685.029785 
	C780.689026,686.036926 780.118896,686.833252 779.548767,687.629578 
	C779.290222,687.475769 779.031677,687.321960 778.773193,687.168152 
	C779.104858,686.442139 779.436462,685.716187 779.995972,684.707764 
	C780.400085,684.556519 780.576355,684.687744 781.005920,685.029785 
z"/>
<path fill="#161616" opacity="1.000000" stroke="none" 
	d="
M447.485901,810.295288 
	C448.789307,810.634949 450.092712,810.974670 451.396118,811.314331 
	C451.329742,811.739807 451.263367,812.165344 451.196991,812.590820 
	C449.909271,812.358398 448.621582,812.126038 447.181152,811.399780 
	C447.180939,810.702332 447.333405,810.498840 447.485901,810.295288 
z"/>
<path fill="#161616" opacity="1.000000" stroke="none" 
	d="
M613.530823,212.547913 
	C612.661987,212.342422 611.793091,212.136932 610.922729,211.457993 
	C611.112366,210.762115 611.303589,210.539703 611.494873,210.317291 
	C612.383301,210.556107 613.271729,210.794937 614.152466,211.485764 
	C613.940186,212.141144 613.735474,212.344513 613.530823,212.547913 
z"/>
<path fill="#171717" opacity="1.000000" stroke="none" 
	d="
M796.244141,630.517456 
	C796.525391,629.701965 796.806641,628.886475 797.267090,627.798035 
	C797.652100,627.732483 797.857910,627.940002 798.347534,628.481567 
	C798.357605,629.529785 798.083862,630.243958 797.312622,630.935425 
	C796.624817,630.780945 796.434509,630.649170 796.244141,630.517456 
z"/>
<path fill="#161616" opacity="1.000000" stroke="none" 
	d="
M446.790802,811.204285 
	C445.555756,811.152649 444.558319,810.802612 443.560883,810.452576 
	C443.614502,810.196716 443.668152,809.940857 443.721771,809.684937 
	C444.717377,809.790527 445.713013,809.896057 447.097290,810.148438 
	C447.333405,810.498840 447.180939,810.702332 446.790802,811.204285 
z"/>
<path fill="#161616" opacity="1.000000" stroke="none" 
	d="
M610.622070,211.307205 
	C609.365051,211.274689 608.407104,210.919479 607.449219,210.564285 
	C607.535828,210.205978 607.622437,209.847672 607.709106,209.489365 
	C608.705994,209.658188 609.702881,209.827026 611.097290,210.156570 
	C611.303589,210.539703 611.112366,210.762115 610.622070,211.307205 
z"/>
<path fill="#161616" opacity="1.000000" stroke="none" 
	d="
M614.462280,211.643524 
	C615.674316,211.779892 616.568848,212.210480 617.463318,212.641083 
	C617.386902,212.865952 617.310486,213.090820 617.234070,213.315689 
	C616.239380,213.178452 615.244751,213.041214 613.890442,212.725922 
	C613.735474,212.344513 613.940186,212.141144 614.462280,211.643524 
z"/>
<path fill="#171717" opacity="1.000000" stroke="none" 
	d="
M247.253586,384.507568 
	C247.559967,383.712250 247.866348,382.916931 248.673477,382.115540 
	C249.361008,382.238251 249.547821,382.366974 249.734650,382.495728 
	C249.432983,383.291046 249.131302,384.086395 248.327667,384.888428 
	C247.635010,384.765991 247.444305,384.636780 247.253586,384.507568 
z"/>
<path fill="#171717" opacity="1.000000" stroke="none" 
	d="
M246.709976,389.500854 
	C246.431549,390.309631 246.153137,391.118408 245.672714,392.179596 
	C245.274734,392.209930 245.078751,391.987885 244.620331,391.407227 
	C244.608215,390.339203 244.858536,389.629761 245.585678,388.963257 
	C246.278320,389.171051 246.494141,389.335968 246.709976,389.500854 
z"/>
<path fill="#4E4E4E" opacity="1.000000" stroke="none" 
	d="
M250.308167,354.319672 
	C249.763336,354.849792 249.218506,355.379883 248.673676,355.909973 
	C248.876572,355.316071 249.079468,354.722137 249.681900,354.107300 
	C250.081436,354.086365 250.308167,354.319672 250.308167,354.319672 
z"/>
<path fill="#424242" opacity="1.000000" stroke="none" 
	d="
M318.409912,734.560364 
	C317.975403,734.236694 317.540894,733.913025 317.175964,733.143555 
	C317.340790,732.559021 317.436066,732.420349 317.531311,732.281738 
	C317.972198,732.664185 318.413055,733.046570 318.774506,733.845215 
	C318.695099,734.261353 318.409912,734.560364 318.409912,734.560364 
z"/>
<path fill="#424242" opacity="1.000000" stroke="none" 
	d="
M790.599304,643.535767 
	C790.764465,642.666748 791.160583,642.053711 791.556702,641.440674 
	C791.766968,641.515381 791.977234,641.590149 792.187561,641.664856 
	C792.079163,642.357727 791.970825,643.050598 791.584473,644.016846 
	C791.147827,644.124146 790.989075,643.957947 790.599304,643.535767 
z"/>
<path fill="#161616" opacity="1.000000" stroke="none" 
	d="
M262.750214,334.494080 
	C262.446503,335.001343 262.142761,335.508606 261.383209,335.978333 
	C260.787628,335.808380 260.647858,335.675934 260.508087,335.543488 
	C260.773773,335.046661 261.039429,334.549805 261.785400,334.118286 
	C262.427216,334.287079 262.588715,334.390594 262.750214,334.494080 
z"/>
<path fill="#565656" opacity="1.000000" stroke="none" 
	d="
M788.651733,671.645569 
	C788.868347,671.120422 789.084900,670.595276 789.695312,670.081238 
	C790.089172,670.092407 790.362305,670.368408 790.362305,670.368408 
	C790.144531,670.891357 789.926758,671.414246 789.317871,671.930298 
	C788.926636,671.923340 788.651733,671.645569 788.651733,671.645569 
z"/>
<path fill="#161616" opacity="1.000000" stroke="none" 
	d="
M264.393402,329.491852 
	C265.040222,328.951080 265.687073,328.410309 266.333923,327.869568 
	C266.242340,328.548431 266.150726,329.227264 265.509766,329.962769 
	C264.771362,329.843536 264.582367,329.667694 264.393402,329.491852 
z"/>
<path fill="#161616" opacity="1.000000" stroke="none" 
	d="
M267.612000,325.129669 
	C268.245941,324.438080 268.703217,324.276917 269.160522,324.115753 
	C269.162781,324.500854 269.294708,325.148865 269.143768,325.223297 
	C268.627930,325.477692 268.012665,325.530426 267.612000,325.129669 
z"/>
<path fill="#161616" opacity="1.000000" stroke="none" 
	d="
M767.248840,702.510376 
	C767.574158,702.013855 767.899475,701.517334 768.730957,701.083923 
	C769.411133,701.255066 769.585083,701.363098 769.759094,701.471191 
	C769.437134,701.975403 769.115173,702.479553 768.277893,702.927368 
	C767.591370,702.750793 767.420105,702.630554 767.248840,702.510376 
z"/>
<path fill="#161616" opacity="1.000000" stroke="none" 
	d="
M262.420715,332.497070 
	C262.704163,332.008636 262.987610,331.520203 263.775085,331.089233 
	C264.459381,331.249237 264.639709,331.351776 264.820068,331.454346 
	C264.509460,331.979279 264.198853,332.504181 263.404968,332.987823 
	C262.754700,332.796753 262.587708,332.646912 262.420715,332.497070 
z"/>
<path fill="#161616" opacity="1.000000" stroke="none" 
	d="
M618.727112,212.850739 
	C619.223755,213.232193 619.321960,213.529251 619.420166,213.826324 
	C619.025269,213.821228 618.630310,213.816147 618.235413,213.811066 
	C618.266479,213.462830 618.297546,213.114594 618.727112,212.850739 
z"/>
<path fill="#171717" opacity="1.000000" stroke="none" 
	d="
M796.922546,632.679932 
	C796.564514,632.681641 796.337769,632.429443 795.968018,631.962708 
	C795.824463,631.448730 795.881531,631.160706 796.120239,630.700806 
	C796.434509,630.649170 796.624817,630.780945 797.091553,631.122803 
	C797.263245,631.697327 797.158508,632.061707 796.922546,632.679932 
z"/>
<path fill="#171717" opacity="1.000000" stroke="none" 
	d="
M247.514404,387.457550 
	C247.340790,387.980804 247.167175,388.504028 246.851776,389.264069 
	C246.494141,389.335968 246.278320,389.171051 245.758408,388.734985 
	C245.656860,387.915131 245.859421,387.366425 246.502136,386.864441 
	C247.133011,387.093292 247.323715,387.275421 247.514404,387.457550 
z"/>
<path fill="#171717" opacity="1.000000" stroke="none" 
	d="
M246.670166,386.624146 
	C246.589264,385.868408 246.780518,385.399658 247.112671,384.719238 
	C247.444305,384.636780 247.635010,384.765991 248.095505,385.111145 
	C248.203415,385.885681 248.041534,386.444244 247.697037,387.230194 
	C247.323715,387.275421 247.133011,387.093292 246.670166,386.624146 
z"/>
<path fill="#171717" opacity="1.000000" stroke="none" 
	d="
M250.649109,380.495361 
	C250.442123,381.005798 250.235123,381.516266 249.881378,382.261230 
	C249.547821,382.366974 249.361008,382.238251 248.909363,381.895752 
	C248.810837,381.126007 248.977158,380.570068 249.621292,380.034760 
	C250.282455,380.202057 250.465775,380.348724 250.649109,380.495361 
z"/>
<path fill="#171717" opacity="1.000000" stroke="none" 
	d="
M249.828613,379.829956 
	C250.073486,379.008392 250.588867,378.412354 251.104248,377.816315 
	C251.082230,378.469269 251.060196,379.122192 250.843643,380.135254 
	C250.465775,380.348724 250.282455,380.202057 249.828613,379.829956 
z"/>
<path fill="#4E4E4E" opacity="1.000000" stroke="none" 
	d="
M260.460510,358.514923 
	C260.802460,358.001465 261.144409,357.488007 262.336823,355.697479 
	C261.951569,357.724823 261.847595,358.271942 261.289673,358.836792 
	C260.710602,358.741364 260.585541,358.628143 260.460510,358.514923 
z"/>
<path fill="#565656" opacity="1.000000" stroke="none" 
	d="
M733.793213,293.201965 
	C733.520142,292.903625 733.247070,292.605286 732.973999,292.306915 
	C733.320496,292.225677 733.666992,292.144470 734.051147,292.484406 
	C734.088867,292.905548 733.793213,293.201965 733.793213,293.201965 
z"/>
<path fill="#424242" opacity="1.000000" stroke="none" 
	d="
M314.394653,729.675842 
	C314.902954,729.655151 315.161926,729.853027 315.308228,730.455566 
	C315.075684,730.955811 314.931885,731.082581 314.788086,731.209290 
	C314.498810,731.050049 314.209564,730.890869 313.828339,730.494934 
	C313.880676,730.126526 314.024963,729.994812 314.394653,729.675842 
z"/>
<path fill="#424242" opacity="1.000000" stroke="none" 
	d="
M315.845642,732.159973 
	C315.552765,732.003174 315.259918,731.846375 314.877563,731.449463 
	C314.931885,731.082581 315.075684,730.955811 315.449554,730.655884 
	C315.944946,730.665955 316.194214,730.868958 316.343719,731.449463 
	C316.121918,731.924866 315.983765,732.042419 315.845642,732.159973 
z"/>
<path fill="#424242" opacity="1.000000" stroke="none" 
	d="
M316.480896,731.648315 
	C316.922394,731.624390 317.120148,731.787354 317.413147,732.129883 
	C317.436066,732.420349 317.340790,732.559021 317.080994,732.889038 
	C316.618469,732.934082 316.320465,732.787842 315.934082,732.400757 
	C315.983765,732.042419 316.121918,731.924866 316.480896,731.648315 
z"/>
<path fill="#4E4E4E" opacity="1.000000" stroke="none" 
	d="
M261.019409,359.028564 
	C260.928284,359.577026 260.653442,359.951508 260.378571,360.325989 
	C260.250092,359.913239 260.121613,359.500519 260.226807,358.801331 
	C260.585541,358.628143 260.710602,358.741364 261.019409,359.028564 
z"/>
<path fill="#424242" opacity="1.000000" stroke="none" 
	d="
M320.109650,734.935913 
	C319.721680,734.975647 319.333710,735.015381 318.677826,734.807739 
	C318.409912,734.560364 318.695099,734.261353 318.851929,734.126831 
	C319.309601,734.155579 319.610474,734.318848 319.977264,734.726624 
	C320.043213,734.971069 320.109650,734.935913 320.109650,734.935913 
z"/>
<path fill="#424242" opacity="1.000000" stroke="none" 
	d="
M320.012573,734.992920 
	C320.223419,735.276733 320.464874,735.538635 320.706360,735.800537 
	C320.359192,735.671204 320.011993,735.541809 319.887238,735.174194 
	C320.109650,734.935913 320.043213,734.971069 320.012573,734.992920 
z"/>
<path fill="#565656" opacity="1.000000" stroke="none" 
	d="
M735.437439,293.566010 
	C735.754456,293.655396 736.019897,293.825439 736.360962,294.278076 
	C736.362976,294.613708 736.237610,294.747467 735.920776,295.078491 
	C735.458496,295.089508 735.187805,294.903290 735.010376,294.308472 
	C735.103638,293.899811 735.437439,293.566010 735.437439,293.566010 
z"/>
<path fill="#424242" opacity="1.000000" stroke="none" 
	d="
M786.250000,652.250000 
	C786.533325,652.299988 786.566650,652.600037 786.599976,652.900024 
	C786.399963,652.766663 786.200012,652.633362 786.250000,652.250000 
z"/>
<path fill="#565656" opacity="1.000000" stroke="none" 
	d="
M734.936462,294.066467 
	C734.493164,294.051788 734.217102,293.870392 733.867065,293.445496 
	C733.793213,293.201965 734.088867,292.905548 734.235779,292.755859 
	C734.714355,292.690399 734.986938,292.866302 735.318909,293.349915 
	C735.437439,293.566010 735.103638,293.899811 734.936462,294.066467 
z"/>
<path fill="#171717" opacity="1.000000" stroke="none" 
	d="
M743.034912,303.287628 
	C742.966614,302.817657 742.989441,302.536163 743.025757,301.831299 
	C743.371765,301.652222 743.704285,301.896545 743.951782,302.667603 
	C743.739380,303.360260 743.611938,303.526154 743.484558,303.692047 
	C743.484558,303.692047 743.125916,303.476135 743.034912,303.287628 
z"/>
<path fill="#565656" opacity="1.000000" stroke="none" 
	d="
M732.495361,290.541870 
	C732.512939,290.521881 732.477722,290.561829 732.495361,290.541870 
z"/>
<path fill="#424242" opacity="1.000000" stroke="none" 
	d="
M787.983154,650.042480 
	C787.885559,650.571594 787.545715,650.917786 787.205933,651.263977 
	C787.100647,650.908630 786.995422,650.553223 787.061035,649.863403 
	C787.401672,649.639099 787.571350,649.749329 787.983154,650.042480 
z"/>
<path fill="#424242" opacity="1.000000" stroke="none" 
	d="
M676.296936,772.313721 
	C676.048950,772.676208 675.645264,772.874695 675.241516,773.073120 
	C675.209351,772.715271 675.177185,772.357483 675.485107,771.912720 
	C675.825256,771.825867 676.141235,772.149597 676.296936,772.313721 
z"/>
<path fill="#424242" opacity="1.000000" stroke="none" 
	d="
M673.256104,773.771362 
	C673.303650,773.501160 673.597778,773.467773 673.891968,773.434387 
	C673.762207,773.625610 673.632507,773.816833 673.256104,773.771362 
z"/>
<path fill="#161616" opacity="1.000000" stroke="none" 
	d="
M259.991821,338.574005 
	C259.551849,338.801147 259.352295,338.598236 259.104065,338.142090 
	C259.371002,338.049286 259.763306,338.134338 259.991821,338.574005 
z"/>
<path fill="#161616" opacity="1.000000" stroke="none" 
	d="
M261.135010,336.141693 
	C260.951935,336.647766 260.561279,336.953003 260.170624,337.258240 
	C260.119598,336.884369 260.068573,336.510468 260.262817,335.840027 
	C260.647858,335.675934 260.787628,335.808380 261.135010,336.141693 
z"/>
<path fill="#565656" opacity="1.000000" stroke="none" 
	d="
M791.253235,667.749634 
	C791.204285,667.366516 791.403442,667.233521 791.602600,667.100464 
	C791.568848,667.400269 791.535095,667.700012 791.253235,667.749634 
z"/>
<path fill="#565656" opacity="1.000000" stroke="none" 
	d="
M789.952515,669.954468 
	C790.063110,669.466919 790.310364,669.117188 790.557617,668.767517 
	C790.665710,669.154602 790.773865,669.541626 790.622131,670.148560 
	C790.362305,670.368408 790.089172,670.092407 789.952515,669.954468 
z"/>
<path fill="#4E4E4E" opacity="1.000000" stroke="none" 
	d="
M251.250000,351.750000 
	C251.300003,351.466675 251.599991,351.433319 251.899994,351.399994 
	C251.766647,351.599976 251.633316,351.799988 251.250000,351.750000 
z"/>
<path fill="#565656" opacity="1.000000" stroke="none" 
	d="
M789.064453,672.061829 
	C788.949951,672.548401 788.697510,672.896423 788.445190,673.244507 
	C788.338196,672.856140 788.231262,672.467773 788.388062,671.862488 
	C788.651733,671.645569 788.926636,671.923340 789.064453,672.061829 
z"/>
<path fill="#565656" opacity="1.000000" stroke="none" 
	d="
M786.950439,674.946472 
	C787.048035,674.425781 787.321228,674.075684 787.594482,673.725586 
	C787.712463,674.127441 787.830505,674.529236 787.715088,675.192505 
	C787.481628,675.453918 787.126099,675.117126 786.950439,674.946472 
z"/>
<path fill="#161616" opacity="1.000000" stroke="none" 
	d="
M263.164490,333.179596 
	C263.373688,333.709381 263.256836,333.968628 262.903442,334.342194 
	C262.588715,334.390594 262.427216,334.287079 262.042542,334.001892 
	C261.904785,333.501068 261.990173,333.181885 262.248138,332.679871 
	C262.587708,332.646912 262.754700,332.796753 263.164490,333.179596 
z"/>
<path fill="#4E4E4E" opacity="1.000000" stroke="none" 
	d="
M249.967499,353.970276 
	C250.080139,353.499390 250.306686,353.144623 250.533234,352.789856 
	C250.639496,353.167633 250.745773,353.545441 250.580109,354.121460 
	C250.308167,354.319672 250.081436,354.086365 249.967499,353.970276 
z"/>
<path fill="#161616" opacity="1.000000" stroke="none" 
	d="
M265.230713,330.296692 
	C265.433411,330.824951 265.305847,331.040436 264.969208,331.337402 
	C264.639709,331.351776 264.459381,331.249237 264.028015,330.962891 
	C263.762024,330.437042 263.854309,330.126892 264.223602,329.670227 
	C264.582367,329.667694 264.771362,329.843536 265.230713,330.296692 
z"/>
<path fill="#565656" opacity="1.000000" stroke="none" 
	d="
M792.777344,665.738403 
	C792.471069,665.740540 792.393005,665.501038 792.314941,665.261536 
	C792.545166,665.339966 792.775330,665.418335 792.777344,665.738403 
z"/>
<path fill="#424242" opacity="1.000000" stroke="none" 
	d="
M785.247314,654.695312 
	C785.298645,654.429932 785.588379,654.402100 785.878052,654.374329 
	C785.747253,654.560547 785.616455,654.746704 785.247314,654.695312 
z"/>
<path fill="#161616" opacity="1.000000" stroke="none" 
	d="
M768.998657,700.953369 
	C769.065735,700.575195 769.371216,700.390747 769.676697,700.206299 
	C769.771179,700.459656 769.865662,700.713074 769.859619,701.218811 
	C769.585083,701.363098 769.411133,701.255066 768.998657,700.953369 
z"/>
<path fill="#161616" opacity="1.000000" stroke="none" 
	d="
M768.010071,703.064087 
	C767.849854,703.591980 767.442261,703.926758 767.034668,704.261475 
	C766.920898,703.875427 766.807129,703.489380 766.971069,702.806824 
	C767.420105,702.630554 767.591370,702.750793 768.010071,703.064087 
z"/>
<path fill="#161616" opacity="1.000000" stroke="none" 
	d="
M765.738159,706.749817 
	C765.459106,706.699524 765.426758,706.400269 765.394348,706.101074 
	C765.591187,706.234314 765.788025,706.367615 765.738159,706.749817 
z"/>
<path fill="#171717" opacity="1.000000" stroke="none" 
	d="
M746.250488,306.250000 
	C746.533447,306.299896 746.566833,306.599823 746.600281,306.899719 
	C746.400513,306.766479 746.200745,306.633240 746.250488,306.250000 
z"/>
<path fill="#171717" opacity="1.000000" stroke="none" 
	d="
M745.246643,303.756195 
	C745.502686,304.240906 745.758728,304.725616 746.014771,305.210327 
	C745.596252,305.188934 745.177795,305.167542 744.753967,304.642395 
	C744.914673,304.011169 745.080688,303.883667 745.246643,303.756195 
z"/>
<path fill="#171717" opacity="1.000000" stroke="none" 
	d="
M744.482788,304.305542 
	C743.995056,304.362335 743.809570,304.208435 743.572449,303.851410 
	C743.611938,303.526154 743.739380,303.360260 744.071777,302.956787 
	C744.554626,302.899841 744.832397,303.080444 745.178406,303.508606 
	C745.080688,303.883667 744.914673,304.011169 744.482788,304.305542 
z"/>
<path fill="#F5F5F5" opacity="1.000000" stroke="none" 
	d="
M388.268127,483.437683 
	C386.178314,488.555969 384.414856,493.404663 382.191742,498.032501 
	C381.435059,499.607666 379.520966,500.626801 378.135742,501.900024 
	C377.147003,500.457794 375.640594,499.142120 375.252197,497.553162 
	C372.372894,485.774506 369.719727,473.940643 366.985077,462.126526 
	C366.555237,460.269592 366.072662,458.424866 364.549164,456.536346 
	C361.740173,472.719330 358.931213,488.902344 356.057251,505.459656 
	C351.882507,504.105835 350.514313,501.826721 351.239227,498.450745 
	C355.143677,480.268066 358.981079,462.067688 363.304138,443.983948 
	C363.685089,442.390503 367.398346,441.593689 370.273499,440.044464 
	C374.025787,456.418030 377.419312,471.225922 380.812805,486.033783 
	C381.172577,486.052277 381.532349,486.070740 381.892120,486.089233 
	C386.562988,474.955933 391.236664,463.823822 395.902313,452.688354 
	C396.800201,450.545410 397.659729,448.386475 398.548920,446.239868 
	C400.473267,441.594147 400.476440,441.595459 406.811707,441.207153 
	C408.960602,461.210083 411.116241,481.276001 413.282349,501.439117 
	C410.699127,501.800964 408.574554,502.098572 405.522125,502.526154 
	C402.008698,487.474182 402.428741,471.635406 399.874298,454.768005 
	C395.714142,465.046448 392.064301,474.063995 388.268127,483.437683 
z"/>
<path fill="#F6F6F6" opacity="1.000000" stroke="none" 
	d="
M526.790283,460.964600 
	C526.235413,475.017914 525.732300,488.620422 525.214478,502.619629 
	C519.294800,505.608124 519.294800,505.608124 518.773560,492.779968 
	C517.281250,494.869568 516.264954,496.377472 515.163269,497.820190 
	C511.080353,503.167084 505.873108,505.160614 500.402496,503.513611 
	C493.981171,501.580414 490.360779,497.426941 490.795807,490.205505 
	C491.092865,485.274384 492.352539,479.877960 494.871246,475.710663 
	C500.466614,466.452789 507.976379,465.044250 518.818481,470.135284 
	C519.981934,461.057068 521.135559,452.056213 522.282104,443.109894 
	C526.964417,443.097687 528.379761,444.846008 528.080505,448.108063 
	C527.700928,452.246338 527.257812,456.378815 526.790283,460.964600 
M515.403870,488.763153 
	C516.759094,484.722717 518.114258,480.682251 519.177063,477.513672 
	C516.501221,476.097321 514.654968,475.309937 513.011353,474.217621 
	C505.387695,469.151276 498.914215,471.606445 496.938538,480.424988 
	C496.576691,482.040070 496.180878,483.711578 496.233612,485.343048 
	C496.374695,489.707367 496.565796,494.336456 501.539276,496.165710 
	C506.477081,497.981842 510.168427,495.355408 513.343994,491.863251 
	C514.007202,491.133942 514.484680,490.235687 515.403870,488.763153 
z"/>
<path fill="#F6F6F6" opacity="1.000000" stroke="none" 
	d="
M551.813049,450.234924 
	C548.065308,449.316223 543.637451,449.761993 544.247253,443.673431 
	C563.407715,445.654205 582.727356,437.901825 601.618774,444.669434 
	C601.666016,445.419922 601.713257,446.170380 601.760559,446.920868 
	C593.056702,448.082825 584.352905,449.244751 574.347534,450.580444 
	C574.347534,459.036224 574.386047,467.642181 574.335632,476.247650 
	C574.293701,483.413727 574.301025,490.587128 573.933044,497.739105 
	C573.847229,499.406616 572.329529,501.000458 571.470703,502.628204 
	C569.743652,501.333771 567.165771,500.377716 566.485413,498.667023 
	C565.419250,495.986176 565.200806,492.768768 565.382629,489.825531 
	C566.171692,477.049835 567.235718,464.291077 568.220337,451.254242 
	C563.327942,450.964050 557.781921,450.635071 551.813049,450.234924 
z"/>
<path fill="#F4F4F4" opacity="1.000000" stroke="none" 
	d="
M602.178833,501.890747 
	C597.357483,499.260895 595.905029,495.228333 596.096069,490.421600 
	C596.396851,482.851746 596.783508,475.285278 597.136902,467.650116 
	C600.247070,467.650116 602.197998,467.650116 604.223877,467.650116 
	C603.733643,477.659851 603.249329,487.549591 602.765015,497.439331 
	C603.522400,497.572571 604.279724,497.705811 605.037109,497.839050 
	C613.234131,489.526672 614.060852,477.915466 617.768005,466.984680 
	C619.442017,467.356964 621.115723,467.729187 621.971130,467.919434 
	C621.971130,476.060028 621.928833,483.687408 621.994202,491.313873 
	C622.016907,493.969971 622.529358,496.635590 622.390747,499.274414 
	C622.304871,500.910339 621.415039,502.504028 620.886047,504.116699 
	C619.152649,502.810425 616.871277,501.829590 615.845703,500.102905 
	C614.892456,498.497894 615.278198,496.097595 615.035339,493.654663 
	C607.745239,505.287628 607.680603,505.329834 602.178833,501.890747 
z"/>
<path fill="#F3F3F3" opacity="1.000000" stroke="none" 
	d="
M649.695190,499.966675 
	C649.640869,494.598724 649.756042,489.631958 649.803650,484.664581 
	C649.845703,480.277435 649.812500,475.889587 648.855957,471.328430 
	C641.009888,480.630768 640.158386,492.538208 636.025818,503.090454 
	C629.336609,503.207458 629.392883,503.211731 629.897339,496.545471 
	C630.599915,487.261200 631.208069,477.969788 631.863892,468.577606 
	C633.401123,468.191162 635.165405,467.747620 637.476562,467.166595 
	C637.476562,472.118469 637.476562,476.956421 637.476562,481.794342 
	C637.761719,481.848938 638.046875,481.903564 638.331970,481.958160 
	C639.984009,478.460999 641.462036,474.866913 643.340149,471.495728 
	C645.009827,468.498657 647.247131,465.975983 651.324341,466.977081 
	C655.268921,467.945618 656.589844,471.110107 656.704407,474.504242 
	C656.866455,479.305481 656.250732,484.127899 656.125427,488.945374 
	C656.009277,493.408722 656.100586,497.877472 656.100586,504.102264 
	C653.389709,502.486328 651.612427,501.426941 649.695190,499.966675 
z"/>
<path fill="#F4F4F4" opacity="1.000000" stroke="none" 
	d="
M668.181824,488.657166 
	C668.962585,493.310608 670.885864,496.762878 675.436523,497.584534 
	C684.162170,499.160065 687.333374,492.146454 691.423889,486.311127 
	C693.278748,495.790802 687.833679,504.019562 679.496277,504.942657 
	C670.623535,505.925079 663.425659,499.625488 662.847717,490.342529 
	C662.335144,482.110748 665.332214,475.325226 671.662109,470.142395 
	C676.788452,465.945099 683.151001,466.197632 686.987000,470.430817 
	C690.017639,473.775330 690.096436,478.845703 687.171509,482.303345 
	C683.459351,486.691528 676.216797,487.525604 671.331421,484.108124 
	C670.671753,483.646698 670.082092,483.085236 668.733643,481.968597 
	C668.495300,484.535004 668.322571,486.394897 668.181824,488.657166 
M675.068176,480.858246 
	C678.465942,481.521088 681.668396,481.156036 682.536011,477.281616 
	C682.877563,475.756470 681.858826,472.667206 680.778198,472.300995 
	C676.072449,470.706268 673.160706,473.776245 670.523376,477.402618 
	C671.867981,478.508545 673.101501,479.523041 675.068176,480.858246 
z"/>
<path fill="#F4F4F4" opacity="1.000000" stroke="none" 
	d="
M455.834869,482.076538 
	C458.494202,478.096039 460.435944,473.781036 463.708221,471.075104 
	C471.386841,464.725586 481.759735,468.257446 484.826599,477.790619 
	C486.674133,483.533600 486.385620,489.270142 483.875275,494.783447 
	C480.539764,502.108948 473.433807,505.713196 465.976288,503.997498 
	C458.946503,502.380188 454.802399,496.581207 454.958710,488.360382 
	C454.996124,486.393890 455.456207,484.435455 455.834869,482.076538 
M475.819000,475.741241 
	C471.289185,471.800537 469.684357,471.910950 466.267639,476.546021 
	C462.123535,482.167816 461.124939,488.525238 463.434998,494.929840 
	C464.299561,497.326752 467.217407,500.435638 469.337646,500.545532 
	C471.780273,500.672150 475.451477,498.435822 476.701233,496.179871 
	C480.258087,489.759369 480.411438,482.887878 475.819000,475.741241 
z"/>
<path fill="#F4F4F4" opacity="1.000000" stroke="none" 
	d="
M419.998962,482.226440 
	C422.481842,478.327728 424.297119,474.144958 427.405609,471.458740 
	C435.397034,464.552887 446.426727,467.853302 448.868561,478.157227 
	C450.057800,483.175537 449.650360,489.124634 448.146118,494.102570 
	C445.742157,502.058014 438.081757,505.704742 430.376892,504.023560 
	C423.038025,502.422150 418.668365,496.070465 419.124634,487.518158 
	C419.212158,485.877350 419.646210,484.254974 419.998962,482.226440 
M443.303619,484.718719 
	C442.179474,481.673035 441.556152,478.295563 439.810852,475.661438 
	C437.345245,471.940063 434.238373,472.119263 431.342529,475.536530 
	C426.420074,481.345215 425.346619,488.110474 427.809875,495.054199 
	C428.649261,497.420441 431.635315,500.504181 433.718964,500.564819 
	C436.164429,500.635986 439.653015,498.317963 440.951294,496.043915 
	C442.644562,493.078125 442.631287,489.138031 443.303619,484.718719 
z"/>
<path fill="#CFCFCF" opacity="1.000000" stroke="none" 
	d="
M562.468628,590.056885 
	C561.434937,590.381653 560.809448,590.705566 560.183960,591.029480 
	C561.410461,591.981812 562.532166,593.451721 563.895630,593.727844 
	C565.053223,593.962280 566.489807,592.818726 567.802979,592.284912 
	C567.957886,592.773499 568.112732,593.262146 568.267639,593.750732 
	C566.120483,594.172363 563.224854,595.645630 561.998840,594.773010 
	C560.082642,593.409180 558.167542,590.344543 558.380005,588.212463 
	C558.558533,586.419983 561.635986,583.800476 563.671143,583.556274 
	C567.198730,583.133057 569.414612,585.604797 569.271606,590.055969 
	C567.102783,590.055969 564.989807,590.055969 562.468628,590.056885 
z"/>
<path fill="#CACACA" opacity="1.000000" stroke="none" 
	d="
M487.301697,583.942505 
	C489.436646,583.782043 491.189819,583.782043 493.318634,583.782043 
	C493.684753,582.839600 494.146149,581.651978 494.710388,580.199585 
	C494.959015,580.751099 495.262238,581.117310 495.269501,581.489319 
	C495.317749,583.971802 495.047607,586.489502 495.372803,588.930298 
	C495.783173,592.010498 494.821075,594.358765 491.837067,594.745483 
	C489.850494,595.002808 486.623230,594.446594 485.839325,593.130188 
	C484.717407,591.246155 485.203644,588.332031 485.270142,585.864868 
	C485.286377,585.263184 486.342133,584.689453 487.301697,583.942505 
M492.442963,586.090576 
	C489.802887,584.126587 487.404358,584.804382 486.616150,587.683777 
	C486.190491,589.238770 487.580536,592.822571 488.338135,592.876709 
	C490.441010,593.026917 492.641724,591.807251 494.803802,591.128845 
	C494.196289,589.641907 493.588806,588.154968 492.442963,586.090576 
z"/>
<path fill="#C2C2C2" opacity="1.000000" stroke="none" 
	d="
M457.799011,583.389465 
	C457.831848,585.306396 457.874756,586.796021 457.894958,588.285889 
	C457.937408,591.421570 459.482361,593.876953 462.582733,593.192322 
	C464.325195,592.807495 466.301697,590.278870 466.824677,588.350464 
	C467.549652,585.677307 467.006805,582.660278 467.436523,579.806580 
	C469.968842,584.910950 469.699432,591.993225 466.634827,593.602661 
	C464.502411,594.722412 461.139099,594.952271 458.903961,594.086548 
	C455.421112,592.737732 454.798737,586.944824 457.195282,579.580261 
	C457.396454,580.707581 457.597626,581.834961 457.799011,583.389465 
z"/>
<path fill="#C2C2C2" opacity="1.000000" stroke="none" 
	d="
M472.052399,585.972107 
	C474.565491,584.903748 477.067383,583.817078 479.595093,583.753174 
	C480.383606,583.733276 481.676758,586.398010 481.964233,587.975098 
	C482.373657,590.220886 482.068329,592.596924 482.068329,594.917358 
	C481.512878,594.930664 480.957428,594.943970 480.402008,594.957275 
	C480.290070,592.975586 480.408020,590.943604 479.988892,589.029114 
	C479.688202,587.655579 478.669434,586.439209 477.971069,585.152710 
	C476.639832,586.392883 474.723755,587.406433 474.132172,588.933167 
	C473.461487,590.664001 473.977356,592.854675 473.977356,594.845398 
	C473.335297,594.837708 472.693237,594.830017 472.051178,594.822327 
	C472.051178,591.997681 472.051178,589.173035 472.052399,585.972107 
z"/>
<path fill="#CFCFCF" opacity="1.000000" stroke="none" 
	d="
M518.054932,590.591797 
	C519.202698,588.073669 519.944397,585.213379 521.770020,584.041016 
	C523.179199,583.136169 525.948181,584.348816 527.724365,585.291321 
	C525.289246,585.874451 522.684082,586.131714 520.531311,587.255554 
	C519.947754,587.560181 520.171875,591.558716 521.000061,591.989929 
	C522.940002,593.000183 525.470032,592.877136 527.406494,593.160950 
	C524.991821,596.891113 521.432495,596.387756 518.054932,590.591797 
z"/>
<path fill="#F3F3F3" opacity="1.000000" stroke="none" 
	d="
M585.509277,594.433716 
	C584.981689,589.444397 584.728821,584.741699 584.475952,580.038940 
	C584.847778,580.028015 585.219604,580.017090 585.591431,580.006104 
	C586.374939,581.422668 587.158508,582.839172 588.028503,584.411987 
	C585.121521,587.195618 585.494995,592.142456 590.081482,594.720215 
	C588.112732,594.720215 586.948303,594.720215 585.509277,594.433716 
z"/>
<path fill="#A6A6A6" opacity="1.000000" stroke="none" 
	d="
M227.084320,469.214966 
	C226.457596,473.499420 225.851334,477.340546 225.245056,481.181641 
	C225.062881,481.160583 224.880692,481.139496 224.698502,481.118439 
	C225.555847,473.262421 226.413193,465.406403 227.270538,457.550385 
	C227.757843,457.604767 228.245148,457.659119 228.732437,457.713501 
	C228.189896,461.399536 227.647339,465.085602 227.084320,469.214966 
z"/>
<path fill="#CFCFCF" opacity="1.000000" stroke="none" 
	d="
M507.476715,585.186401 
	C508.124512,586.578186 508.772339,587.969971 509.720642,590.007324 
	C506.011414,590.007324 503.131256,590.007324 500.251129,590.007324 
	C500.042084,590.499512 499.833038,590.991699 499.623993,591.483826 
	C501.572083,592.570740 503.520172,593.657654 505.468262,594.744507 
	C505.380371,595.000122 505.292480,595.255737 505.204590,595.511353 
	C503.217163,594.811096 500.144043,594.636780 499.491486,593.289795 
	C498.459198,591.159058 499.048767,588.242615 499.416748,585.677002 
	C500.004822,585.873474 500.128113,586.051636 500.173828,586.612122 
	C501.936646,587.555847 503.760712,588.202759 505.639771,588.561951 
	C505.855774,588.603210 506.378479,587.040161 506.950989,585.971069 
	C507.254211,585.542908 507.365448,585.364685 507.476715,585.186401 
z"/>
<path fill="#4E4E4E" opacity="1.000000" stroke="none" 
	d="
M224.051636,508.031647 
	C224.048935,512.264038 224.048935,516.020447 224.048935,519.776794 
	C223.932816,519.788025 223.816711,519.799255 223.700592,519.810486 
	C223.700592,511.827148 223.700592,503.843872 223.700592,495.860565 
	C224.002014,495.851593 224.303436,495.842621 224.604843,495.833649 
	C224.421341,499.740967 224.237823,503.648315 224.051636,508.031647 
z"/>
<path fill="#CACACA" opacity="1.000000" stroke="none" 
	d="
M516.221558,583.872925 
	C514.717529,587.453003 513.213440,591.033081 511.671204,594.704102 
	C511.671204,591.338318 511.671204,587.765564 511.671204,584.017029 
	C512.834839,584.190735 514.310486,584.411072 515.980957,584.280029 
	C516.175842,583.928711 516.221558,583.872925 516.221558,583.872925 
z"/>
<path fill="#CACACA" opacity="1.000000" stroke="none" 
	d="
M556.221558,583.872925 
	C554.719177,587.449097 553.216797,591.025208 551.671143,594.704407 
	C551.671143,591.342529 551.671143,587.776001 551.671143,584.016846 
	C552.834778,584.190613 554.310486,584.411011 555.980957,584.280029 
	C556.175842,583.928711 556.221558,583.872925 556.221558,583.872925 
z"/>
<path fill="#CFCFCF" opacity="1.000000" stroke="none" 
	d="
M500.310455,584.476990 
	C502.250336,584.326172 504.190247,584.175354 506.161499,584.446228 
	C506.046112,585.006836 505.899384,585.145630 505.379944,585.208557 
	C503.756622,585.181824 502.505981,585.230957 501.023865,585.073730 
	C500.631714,584.737244 500.471069,584.607117 500.310455,584.476990 
z"/>
<path fill="#CACACA" opacity="1.000000" stroke="none" 
	d="
M556.155273,583.958374 
	C556.134644,583.987976 556.141541,583.848206 556.141541,583.848206 
	C556.141541,583.848206 556.072266,584.024780 556.146912,583.948853 
	C556.221558,583.872925 556.175842,583.928711 556.155273,583.958374 
z"/>
<path fill="#CACACA" opacity="1.000000" stroke="none" 
	d="
M516.155273,583.958374 
	C516.134644,583.987976 516.141541,583.848206 516.141541,583.848206 
	C516.141541,583.848206 516.072266,584.024780 516.146912,583.948853 
	C516.221558,583.872925 516.175842,583.928711 516.155273,583.958374 
z"/>
<path fill="#CFCFCF" opacity="1.000000" stroke="none" 
	d="
M506.423065,584.671021 
	C506.892517,584.557190 507.095673,584.693909 507.369751,585.035278 
	C507.365448,585.364685 507.254211,585.542908 506.722931,585.888062 
	C506.002869,585.881348 505.819458,585.624512 505.752655,585.284424 
	C505.899384,585.145630 506.046112,585.006836 506.423065,584.671021 
z"/>
<path fill="#CFCFCF" opacity="1.000000" stroke="none" 
	d="
M499.724884,585.410461 
	C499.666351,584.916077 499.811157,584.746277 500.156555,584.546631 
	C500.471069,584.607117 500.631714,584.737244 500.929230,585.297913 
	C500.857574,585.997986 500.585999,586.165039 500.251404,586.229736 
	C500.128113,586.051636 500.004822,585.873474 499.724884,585.410461 
z"/>
<path fill="#1D1D1D" opacity="1.000000" stroke="none" 
	d="
M515.225830,489.089233 
	C514.484680,490.235687 514.007202,491.133942 513.343994,491.863251 
	C510.168427,495.355408 506.477081,497.981842 501.539276,496.165710 
	C496.565796,494.336456 496.374695,489.707367 496.233612,485.343048 
	C496.180878,483.711578 496.576691,482.040070 496.938538,480.424988 
	C498.914215,471.606445 505.387695,469.151276 513.011353,474.217621 
	C514.654968,475.309937 516.501221,476.097321 519.177063,477.513672 
	C518.114258,480.682251 516.759094,484.722717 515.225830,489.089233 
z"/>
<path fill="#212121" opacity="1.000000" stroke="none" 
	d="
M674.701599,480.697906 
	C673.101501,479.523041 671.867981,478.508545 670.523376,477.402618 
	C673.160706,473.776245 676.072449,470.706268 680.778198,472.300995 
	C681.858826,472.667206 682.877563,475.756470 682.536011,477.281616 
	C681.668396,481.156036 678.465942,481.521088 674.701599,480.697906 
z"/>
<path fill="#1B1B1B" opacity="1.000000" stroke="none" 
	d="
M476.032959,476.061127 
	C480.411438,482.887878 480.258087,489.759369 476.701233,496.179871 
	C475.451477,498.435822 471.780273,500.672150 469.337646,500.545532 
	C467.217407,500.435638 464.299561,497.326752 463.434998,494.929840 
	C461.124939,488.525238 462.123535,482.167816 466.267639,476.546021 
	C469.684357,471.910950 471.289185,471.800537 476.032959,476.061127 
z"/>
<path fill="#1B1B1B" opacity="1.000000" stroke="none" 
	d="
M443.328003,485.167969 
	C442.631287,489.138031 442.644562,493.078125 440.951294,496.043915 
	C439.653015,498.317963 436.164429,500.635986 433.718964,500.564819 
	C431.635315,500.504181 428.649261,497.420441 427.809875,495.054199 
	C425.346619,488.110474 426.420074,481.345215 431.342529,475.536530 
	C434.238373,472.119263 437.345245,471.940063 439.810852,475.661438 
	C441.556152,478.295563 442.179474,481.673035 443.328003,485.167969 
z"/>
<path fill="#262626" opacity="1.000000" stroke="none" 
	d="
M492.712128,586.379272 
	C493.588806,588.154968 494.196289,589.641907 494.803802,591.128845 
	C492.641724,591.807251 490.441010,593.026917 488.338135,592.876709 
	C487.580536,592.822571 486.190491,589.238770 486.616150,587.683777 
	C487.404358,584.804382 489.802887,584.126587 492.712128,586.379272 
z"/>
<path fill="#262626" opacity="1.000000" stroke="none" 
	d="
M500.173828,586.612122 
	C500.585999,586.165039 500.857574,585.997986 501.160736,585.504272 
	C502.505981,585.230957 503.756622,585.181824 505.379944,585.208557 
	C505.819458,585.624512 506.002869,585.881348 506.530945,586.137939 
	C506.378479,587.040161 505.855774,588.603210 505.639771,588.561951 
	C503.760712,588.202759 501.936646,587.555847 500.173828,586.612122 
z"/>
</svg>